<svg xmlns="http://www.w3.org/2000/svg" viewBox="0 0 1000 1000" width="1000" height="1000"><rect x="0" y="0" width="1000" height="1000" fill="#0b1a0f" /><text x="60" y="70" font-family="'Courier New',monospace" font-weight="700" font-size="26" fill="#1e7a3a" text-anchor="start" opacity="0.5">0101 LLMA &gt; train --epoch 0</text><text x="60" y="136" font-family="'Courier New',monospace" font-weight="700" font-size="26" fill="#1e7a3a" text-anchor="start" opacity="0.5">0101 LLMA &gt; train --epoch 1</text><text x="60" y="202" font-family="'Courier New',monospace" font-weight="700" font-size="26" fill="#1e7a3a" text-anchor="start" opacity="0.5">0101 LLMA &gt; train --epoch 2</text><text x="60" y="268" font-family="'Courier New',monospace" font-weight="700" font-size="26" fill="#1e7a3a" text-anchor="start" opacity="0.5">0101 LLMA &gt; train --epoch 3</text><text x="60" y="334" font-family="'Courier New',monospace" font-weight="700" font-size="26" fill="#1e7a3a" text-anchor="start" opacity="0.5">0101 LLMA &gt; train --epoch 4</text><text x="60" y="400" font-family="'Courier New',monospace" font-weight="700" font-size="26" fill="#1e7a3a" text-anchor="start" opacity="0.5">0101 LLMA &gt; train --epoch 5</text><text x="60" y="466" font-family="'Courier New',monospace" font-weight="700" font-size="26" fill="#1e7a3a" text-anchor="start" opacity="0.5">0101 LLMA &gt; train --epoch 6</text><text x="60" y="532" font-family="'Courier New',monospace" font-weight="700" font-size="26" fill="#1e7a3a" text-anchor="start" opacity="0.5">0101 LLMA &gt; train --epoch 7</text><text x="60" y="598" font-family="'Courier New',monospace" font-weight="700" font-size="26" fill="#1e7a3a" text-anchor="start" opacity="0.5">0101 LLMA &gt; train --epoch 8</text><text x="60" y="664" font-family="'Courier New',monospace" font-weight="700" font-size="26" fill="#1e7a3a" text-anchor="start" opacity="0.5">0101 LLMA &gt; train --epoch 9</text><text x="60" y="730" font-family="'Courier New',monospace" font-weight="700" font-size="26" fill="#1e7a3a" text-anchor="start" opacity="0.5">0101 LLMA &gt; train --epoch 10</text><text x="60" y="796" font-family="'Courier New',monospace" font-weight="700" font-size="26" fill="#1e7a3a" text-anchor="start" opacity="0.5">0101 LLMA &gt; train --epoch 11</text><text x="60" y="862" font-family="'Courier New',monospace" font-weight="700" font-size="26" fill="#1e7a3a" text-anchor="start" opacity="0.5">0101 LLMA &gt; train --epoch 12</text><text x="60" y="928" font-family="'Courier New',monospace" font-weight="700" font-size="26" fill="#1e7a3a" text-anchor="start" opacity="0.5">0101 LLMA &gt; train --epoch 13</text><g transform="rotate(-16 423 220)"><ellipse cx="423" cy="180" rx="42" ry="92" fill="#f3b6c9" stroke="#15161a" stroke-width="7" stroke-linejoin="round" stroke-linecap="round"/><ellipse cx="423" cy="195" rx="18" ry="55" fill="#e58aa8" /></g><g transform="rotate(16 577 220)"><ellipse cx="577" cy="180" rx="42" ry="92" fill="#f3b6c9" stroke="#15161a" stroke-width="7" stroke-linejoin="round" stroke-linecap="round"/><ellipse cx="577" cy="195" rx="18" ry="55" fill="#e58aa8" /></g><path d="M 386,632 C 352,790 350,910 372,1000 L 628,1000 C 650,910 648,790 614,632 Z" fill="#f3b6c9" stroke="#15161a" stroke-width="7" stroke-linejoin="round" stroke-linecap="round"/><path d="M 386,632 C 352,790 350,910 372,1000 L 470,1000 C 452,900 452,800 470,632 Z" fill="#e58aa8" opacity="0.5"/><ellipse cx="500" cy="430" rx="190" ry="178" fill="#f3b6c9" stroke="#15161a" stroke-width="7" stroke-linejoin="round" stroke-linecap="round"/><path d="M 410,300 q 30,-60 90,-30 q 60,-30 90,30 q -20,40 -90,30 q -70,10 -90,-30 Z" fill="#e58aa8" opacity="0.55"/><ellipse cx="500" cy="548" rx="126" ry="94" fill="#ffd9e4" stroke="#15161a" stroke-width="7" stroke-linejoin="round" stroke-linecap="round"/><ellipse cx="466" cy="552" rx="11" ry="15" fill="#e58aa8" /><ellipse cx="534" cy="552" rx="11" ry="15" fill="#e58aa8" /><path d="M 372,1000 C 360,900 372,820 410,792 L 590,792 C 628,820 640,900 628,1000 Z" fill="#f4f6fb" stroke="#15161a" stroke-width="7" stroke-linejoin="round" stroke-linecap="round"/><line x1="500" y1="800" x2="500" y2="1000" stroke="#c7ccd6" stroke-width="5" /><circle cx="470" cy="880" r="7" fill="#c7ccd6" /><circle cx="470" cy="940" r="7" fill="#c7ccd6" /><rect x="540" y="840" width="46" height="56" fill="#dfe3ec" stroke="#c7ccd6" stroke-width="3" stroke-linejoin="round" stroke-linecap="round"/><path d="M 460,612 Q 500,626 540,612" fill="none" stroke="#15161a" stroke-width="6" stroke-linejoin="round" stroke-linecap="round"/><path d="M 400,408 q 28,26 56,0" fill="none" stroke="#15161a" stroke-width="6" stroke-linejoin="round" stroke-linecap="round"/><path d="M 544,408 q 28,26 56,0" fill="none" stroke="#15161a" stroke-width="6" stroke-linejoin="round" stroke-linecap="round"/><rect x="494" y="162" width="14" height="80" fill="#3ad07a" /><text x="500" y="254" font-family="'Courier New',monospace" font-weight="700" font-size="20" fill="#3ad07a" text-anchor="middle" >&gt;_</text><line x1="0" y1="0" x2="500" y2="430" stroke="#7f9bff" stroke-width="1.5" opacity="0.35"/><line x1="91" y1="0" x2="500" y2="430" stroke="#7f9bff" stroke-width="1.5" opacity="0.35"/><line x1="182" y1="0" x2="500" y2="430" stroke="#7f9bff" stroke-width="1.5" opacity="0.35"/><line x1="273" y1="0" x2="500" y2="430" stroke="#7f9bff" stroke-width="1.5" opacity="0.35"/><line x1="364" y1="0" x2="500" y2="430" stroke="#7f9bff" stroke-width="1.5" opacity="0.35"/><line x1="455" y1="0" x2="500" y2="430" stroke="#7f9bff" stroke-width="1.5" opacity="0.35"/><line x1="546" y1="0" x2="500" y2="430" stroke="#7f9bff" stroke-width="1.5" opacity="0.35"/><line x1="637" y1="0" x2="500" y2="430" stroke="#7f9bff" stroke-width="1.5" opacity="0.35"/><line x1="728" y1="0" x2="500" y2="430" stroke="#7f9bff" stroke-width="1.5" opacity="0.35"/><line x1="819" y1="0" x2="500" y2="430" stroke="#7f9bff" stroke-width="1.5" opacity="0.35"/><line x1="910" y1="0" x2="500" y2="430" stroke="#7f9bff" stroke-width="1.5" opacity="0.35"/><line x1="1" y1="0" x2="500" y2="430" stroke="#7f9bff" stroke-width="1.5" opacity="0.35"/></svg>