<svg xmlns="http://www.w3.org/2000/svg" viewBox="0 0 1000 1000" width="1000" height="1000"><rect x="0" y="0" width="1000" height="1000" fill="#1247c4" /><text x="500" y="300" font-family="'Courier New',monospace" font-weight="700" font-size="120" fill="#ffffff" text-anchor="middle" >:(</text><text x="500" y="420" font-family="'Courier New',monospace" font-weight="700" font-size="30" fill="#dbe6ff" text-anchor="middle" >MODEL_NOT_RESPONDING</text><text x="500" y="470" font-family="'Courier New',monospace" font-weight="700" font-size="22" fill="#aac2ff" text-anchor="middle" >0x4800 — your LLMa ran out of VRAM</text><g transform="rotate(-16 423 220)"><ellipse cx="423" cy="180" rx="42" ry="92" fill="#b9bec7" stroke="#15161a" stroke-width="7" stroke-linejoin="round" stroke-linecap="round"/><ellipse cx="423" cy="195" rx="18" ry="55" fill="#8b909b" /></g><g transform="rotate(16 577 220)"><ellipse cx="577" cy="180" rx="42" ry="92" fill="#b9bec7" stroke="#15161a" stroke-width="7" stroke-linejoin="round" stroke-linecap="round"/><ellipse cx="577" cy="195" rx="18" ry="55" fill="#8b909b" /></g><path d="M 386,632 C 352,790 350,910 372,1000 L 628,1000 C 650,910 648,790 614,632 Z" fill="#b9bec7" stroke="#15161a" stroke-width="7" stroke-linejoin="round" stroke-linecap="round"/><path d="M 386,632 C 352,790 350,910 372,1000 L 470,1000 C 452,900 452,800 470,632 Z" fill="#979daa" opacity="0.5"/><ellipse cx="500" cy="430" rx="190" ry="178" fill="#b9bec7" stroke="#15161a" stroke-width="7" stroke-linejoin="round" stroke-linecap="round"/><path d="M 410,300 q 30,-60 90,-30 q 60,-30 90,30 q -20,40 -90,30 q -70,10 -90,-30 Z" fill="#979daa" opacity="0.55"/><ellipse cx="500" cy="548" rx="126" ry="94" fill="#d8dce2" stroke="#15161a" stroke-width="7" stroke-linejoin="round" stroke-linecap="round"/><ellipse cx="466" cy="552" rx="11" ry="15" fill="#979daa" /><ellipse cx="534" cy="552" rx="11" ry="15" fill="#979daa" /><path d="M 372,1000 C 360,900 372,820 410,792 L 590,792 C 628,820 640,900 628,1000 Z" fill="#eaff1f" stroke="#15161a" stroke-width="7" stroke-linejoin="round" stroke-linecap="round"/><rect x="400" y="860" width="200" height="30" fill="#cfe000" opacity="0.8"/><rect x="400" y="920" width="200" height="26" fill="#9aa7ff" stroke="#ffffff" stroke-width="4" stroke-linejoin="round" stroke-linecap="round"/><path d="M 430,760 Q 500,820 570,760" fill="none" stroke="#9aa7b8" stroke-width="8" stroke-linejoin="round" stroke-linecap="round"/><rect x="484" y="796" width="32" height="50" fill="#3a3f4b" stroke="#15161a" stroke-width="7" stroke-linejoin="round" stroke-linecap="round"/><rect x="490" y="786" width="20" height="16" fill="#c0c6d2" stroke="" stroke-width="3" stroke-linejoin="round" stroke-linecap="round"/><path d="M 458,618 Q 510,634 548,604" fill="none" stroke="#15161a" stroke-width="6" stroke-linejoin="round" stroke-linecap="round"/><path d="M 400,408 q 28,26 56,0" fill="none" stroke="#15161a" stroke-width="6" stroke-linejoin="round" stroke-linecap="round"/><path d="M 544,408 q 28,26 56,0" fill="none" stroke="#15161a" stroke-width="6" stroke-linejoin="round" stroke-linecap="round"/></svg>