<svg xmlns="http://www.w3.org/2000/svg" viewBox="0 0 1000 1000" width="1000" height="1000"><defs><linearGradient id="dc" x1="0" y1="0" x2="0" y2="1"><stop offset="0" stop-color="#0e2233"/><stop offset="1" stop-color="#04111c"/></linearGradient></defs><rect x="0" y="0" width="1000" height="1000" fill="url(#dc)" /><rect x="60" y="200" width="90" height="700" fill="#10303f" stroke="#0a1c26" stroke-width="4" stroke-linejoin="round" stroke-linecap="round"/><circle cx="105" cy="240" r="6" fill="#36e0c8" /><circle cx="105" cy="304" r="6" fill="#36e0c8" /><circle cx="105" cy="368" r="6" fill="#36e0c8" /><circle cx="105" cy="432" r="6" fill="#36e0c8" /><circle cx="105" cy="496" r="6" fill="#36e0c8" /><circle cx="105" cy="560" r="6" fill="#36e0c8" /><circle cx="105" cy="624" r="6" fill="#36e0c8" /><circle cx="105" cy="688" r="6" fill="#36e0c8" /><circle cx="105" cy="752" r="6" fill="#36e0c8" /><circle cx="105" cy="816" r="6" fill="#36e0c8" /><rect x="210" y="200" width="90" height="700" fill="#10303f" stroke="#0a1c26" stroke-width="4" stroke-linejoin="round" stroke-linecap="round"/><circle cx="255" cy="240" r="6" fill="#36e0c8" /><circle cx="255" cy="304" r="6" fill="#36e0c8" /><circle cx="255" cy="368" r="6" fill="#36e0c8" /><circle cx="255" cy="432" r="6" fill="#36e0c8" /><circle cx="255" cy="496" r="6" fill="#36e0c8" /><circle cx="255" cy="560" r="6" fill="#36e0c8" /><circle cx="255" cy="624" r="6" fill="#36e0c8" /><circle cx="255" cy="688" r="6" fill="#36e0c8" /><circle cx="255" cy="752" r="6" fill="#36e0c8" /><circle cx="255" cy="816" r="6" fill="#36e0c8" /><rect x="360" y="200" width="90" height="700" fill="#10303f" stroke="#0a1c26" stroke-width="4" stroke-linejoin="round" stroke-linecap="round"/><circle cx="405" cy="240" r="6" fill="#36e0c8" /><circle cx="405" cy="304" r="6" fill="#36e0c8" /><circle cx="405" cy="368" r="6" fill="#36e0c8" /><circle cx="405" cy="432" r="6" fill="#36e0c8" /><circle cx="405" cy="496" r="6" fill="#36e0c8" /><circle cx="405" cy="560" r="6" fill="#36e0c8" /><circle cx="405" cy="624" r="6" fill="#36e0c8" /><circle cx="405" cy="688" r="6" fill="#36e0c8" /><circle cx="405" cy="752" r="6" fill="#36e0c8" /><circle cx="405" cy="816" r="6" fill="#36e0c8" /><rect x="510" y="200" width="90" height="700" fill="#10303f" stroke="#0a1c26" stroke-width="4" stroke-linejoin="round" stroke-linecap="round"/><circle cx="555" cy="240" r="6" fill="#36e0c8" /><circle cx="555" cy="304" r="6" fill="#36e0c8" /><circle cx="555" cy="368" r="6" fill="#36e0c8" /><circle cx="555" cy="432" r="6" fill="#36e0c8" /><circle cx="555" cy="496" r="6" fill="#36e0c8" /><circle cx="555" cy="560" r="6" fill="#36e0c8" /><circle cx="555" cy="624" r="6" fill="#36e0c8" /><circle cx="555" cy="688" r="6" fill="#36e0c8" /><circle cx="555" cy="752" r="6" fill="#36e0c8" /><circle cx="555" cy="816" r="6" fill="#36e0c8" /><rect x="660" y="200" width="90" height="700" fill="#10303f" stroke="#0a1c26" stroke-width="4" stroke-linejoin="round" stroke-linecap="round"/><circle cx="705" cy="240" r="6" fill="#36e0c8" /><circle cx="705" cy="304" r="6" fill="#36e0c8" /><circle cx="705" cy="368" r="6" fill="#36e0c8" /><circle cx="705" cy="432" r="6" fill="#36e0c8" /><circle cx="705" cy="496" r="6" fill="#36e0c8" /><circle cx="705" cy="560" r="6" fill="#36e0c8" /><circle cx="705" cy="624" r="6" fill="#36e0c8" /><circle cx="705" cy="688" r="6" fill="#36e0c8" /><circle cx="705" cy="752" r="6" fill="#36e0c8" /><circle cx="705" cy="816" r="6" fill="#36e0c8" /><rect x="810" y="200" width="90" height="700" fill="#10303f" stroke="#0a1c26" stroke-width="4" stroke-linejoin="round" stroke-linecap="round"/><circle cx="855" cy="240" r="6" fill="#36e0c8" /><circle cx="855" cy="304" r="6" fill="#36e0c8" /><circle cx="855" cy="368" r="6" fill="#36e0c8" /><circle cx="855" cy="432" r="6" fill="#36e0c8" /><circle cx="855" cy="496" r="6" fill="#36e0c8" /><circle cx="855" cy="560" r="6" fill="#36e0c8" /><circle cx="855" cy="624" r="6" fill="#36e0c8" /><circle cx="855" cy="688" r="6" fill="#36e0c8" /><circle cx="855" cy="752" r="6" fill="#36e0c8" /><circle cx="855" cy="816" r="6" fill="#36e0c8" /><g transform="rotate(-16 423 220)"><ellipse cx="423" cy="180" rx="42" ry="92" fill="#b07d4e" stroke="#15161a" stroke-width="7" stroke-linejoin="round" stroke-linecap="round"/><ellipse cx="423" cy="195" rx="18" ry="55" fill="#8a5a34" /></g><g transform="rotate(16 577 220)"><ellipse cx="577" cy="180" rx="42" ry="92" fill="#b07d4e" stroke="#15161a" stroke-width="7" stroke-linejoin="round" stroke-linecap="round"/><ellipse cx="577" cy="195" rx="18" ry="55" fill="#8a5a34" /></g><path d="M 386,632 C 352,790 350,910 372,1000 L 628,1000 C 650,910 648,790 614,632 Z" fill="#b07d4e" stroke="#15161a" stroke-width="7" stroke-linejoin="round" stroke-linecap="round"/><path d="M 386,632 C 352,790 350,910 372,1000 L 470,1000 C 452,900 452,800 470,632 Z" fill="#92653b" opacity="0.5"/><ellipse cx="500" cy="430" rx="190" ry="178" fill="#b07d4e" stroke="#15161a" stroke-width="7" stroke-linejoin="round" stroke-linecap="round"/><path d="M 410,300 q 30,-60 90,-30 q 60,-30 90,30 q -20,40 -90,30 q -70,10 -90,-30 Z" fill="#92653b" opacity="0.55"/><ellipse cx="500" cy="548" rx="126" ry="94" fill="#d8b388" stroke="#15161a" stroke-width="7" stroke-linejoin="round" stroke-linecap="round"/><ellipse cx="466" cy="552" rx="11" ry="15" fill="#92653b" /><ellipse cx="534" cy="552" rx="11" ry="15" fill="#92653b" /><path d="M 372,1000 C 360,900 372,820 410,792 L 590,792 C 628,820 640,900 628,1000 Z" fill="#15564a" stroke="#15161a" stroke-width="7" stroke-linejoin="round" stroke-linecap="round"/><line x1="410" y1="800" x2="410" y2="1000" stroke="#3fe0b0" stroke-width="3" /><circle cx="410" cy="860" r="6" fill="#9fffe0" /><line x1="455" y1="800" x2="455" y2="1000" stroke="#3fe0b0" stroke-width="3" /><circle cx="455" cy="910" r="6" fill="#9fffe0" /><line x1="500" y1="800" x2="500" y2="1000" stroke="#3fe0b0" stroke-width="3" /><circle cx="500" cy="860" r="6" fill="#9fffe0" /><line x1="545" y1="800" x2="545" y2="1000" stroke="#3fe0b0" stroke-width="3" /><circle cx="545" cy="910" r="6" fill="#9fffe0" /><line x1="590" y1="800" x2="590" y2="1000" stroke="#3fe0b0" stroke-width="3" /><circle cx="590" cy="860" r="6" fill="#9fffe0" /><path d="M 430,760 Q 500,820 570,760" fill="none" stroke="#e9c45a" stroke-width="8" stroke-linejoin="round" stroke-linecap="round"/><circle cx="500" cy="820" r="34" fill="#e9c45a" stroke="#15161a" stroke-width="7" stroke-linejoin="round" stroke-linecap="round"/><text x="500" y="834" font-family="'Courier New',monospace" font-weight="700" font-size="44" fill="#7a5c00" text-anchor="middle" >◈</text><path d="M 458,618 Q 510,634 548,604" fill="none" stroke="#15161a" stroke-width="6" stroke-linejoin="round" stroke-linecap="round"/><path d="M 400,408 q 28,26 56,0" fill="none" stroke="#15161a" stroke-width="6" stroke-linejoin="round" stroke-linecap="round"/><path d="M 544,408 q 28,26 56,0" fill="none" stroke="#15161a" stroke-width="6" stroke-linejoin="round" stroke-linecap="round"/><rect x="494" y="162" width="14" height="80" fill="#3ad07a" /><text x="500" y="254" font-family="'Courier New',monospace" font-weight="700" font-size="20" fill="#3ad07a" text-anchor="middle" >&gt;_</text></svg>