<svg xmlns="http://www.w3.org/2000/svg" viewBox="0 0 1000 1000" width="1000" height="1000"><rect x="0" y="0" width="1000" height="1000" fill="#141826" /><text x="0" y="0" font-family="'Courier New',monospace" font-weight="700" font-size="22" fill="#3a4a7a" text-anchor="middle" opacity="0.55">the</text><text x="167" y="233" font-family="'Courier New',monospace" font-weight="700" font-size="22" fill="#3a4a7a" text-anchor="middle" opacity="0.55">llma</text><text x="334" y="466" font-family="'Courier New',monospace" font-weight="700" font-size="22" fill="#3a4a7a" text-anchor="middle" opacity="0.55">▁of</text><text x="501" y="699" font-family="'Courier New',monospace" font-weight="700" font-size="22" fill="#3a4a7a" text-anchor="middle" opacity="0.55">token</text><text x="668" y="932" font-family="'Courier New',monospace" font-weight="700" font-size="22" fill="#3a4a7a" text-anchor="middle" opacity="0.55">0xAI</text><text x="835" y="165" font-family="'Courier New',monospace" font-weight="700" font-size="22" fill="#3a4a7a" text-anchor="middle" opacity="0.55">▁is</text><text x="2" y="398" font-family="'Courier New',monospace" font-weight="700" font-size="22" fill="#3a4a7a" text-anchor="middle" opacity="0.55">all</text><text x="169" y="631" font-family="'Courier New',monospace" font-weight="700" font-size="22" fill="#3a4a7a" text-anchor="middle" opacity="0.55">▁you</text><text x="336" y="864" font-family="'Courier New',monospace" font-weight="700" font-size="22" fill="#3a4a7a" text-anchor="middle" opacity="0.55">need</text><text x="503" y="97" font-family="'Courier New',monospace" font-weight="700" font-size="22" fill="#3a4a7a" text-anchor="middle" opacity="0.55">&lt;eos&gt;</text><text x="670" y="330" font-family="'Courier New',monospace" font-weight="700" font-size="22" fill="#3a4a7a" text-anchor="middle" opacity="0.55">the</text><text x="837" y="563" font-family="'Courier New',monospace" font-weight="700" font-size="22" fill="#3a4a7a" text-anchor="middle" opacity="0.55">llma</text><text x="4" y="796" font-family="'Courier New',monospace" font-weight="700" font-size="22" fill="#3a4a7a" text-anchor="middle" opacity="0.55">▁of</text><text x="171" y="29" font-family="'Courier New',monospace" font-weight="700" font-size="22" fill="#3a4a7a" text-anchor="middle" opacity="0.55">token</text><text x="338" y="262" font-family="'Courier New',monospace" font-weight="700" font-size="22" fill="#3a4a7a" text-anchor="middle" opacity="0.55">0xAI</text><text x="505" y="495" font-family="'Courier New',monospace" font-weight="700" font-size="22" fill="#3a4a7a" text-anchor="middle" opacity="0.55">▁is</text><text x="672" y="728" font-family="'Courier New',monospace" font-weight="700" font-size="22" fill="#3a4a7a" text-anchor="middle" opacity="0.55">all</text><text x="839" y="961" font-family="'Courier New',monospace" font-weight="700" font-size="22" fill="#3a4a7a" text-anchor="middle" opacity="0.55">▁you</text><text x="6" y="194" font-family="'Courier New',monospace" font-weight="700" font-size="22" fill="#3a4a7a" text-anchor="middle" opacity="0.55">need</text><text x="173" y="427" font-family="'Courier New',monospace" font-weight="700" font-size="22" fill="#3a4a7a" text-anchor="middle" opacity="0.55">&lt;eos&gt;</text><text x="340" y="660" font-family="'Courier New',monospace" font-weight="700" font-size="22" fill="#3a4a7a" text-anchor="middle" opacity="0.55">the</text><text x="507" y="893" font-family="'Courier New',monospace" font-weight="700" font-size="22" fill="#3a4a7a" text-anchor="middle" opacity="0.55">llma</text><text x="674" y="126" font-family="'Courier New',monospace" font-weight="700" font-size="22" fill="#3a4a7a" text-anchor="middle" opacity="0.55">▁of</text><text x="841" y="359" font-family="'Courier New',monospace" font-weight="700" font-size="22" fill="#3a4a7a" text-anchor="middle" opacity="0.55">token</text><text x="8" y="592" font-family="'Courier New',monospace" font-weight="700" font-size="22" fill="#3a4a7a" text-anchor="middle" opacity="0.55">0xAI</text><text x="175" y="825" font-family="'Courier New',monospace" font-weight="700" font-size="22" fill="#3a4a7a" text-anchor="middle" opacity="0.55">▁is</text><text x="342" y="58" font-family="'Courier New',monospace" font-weight="700" font-size="22" fill="#3a4a7a" text-anchor="middle" opacity="0.55">all</text><text x="509" y="291" font-family="'Courier New',monospace" font-weight="700" font-size="22" fill="#3a4a7a" text-anchor="middle" opacity="0.55">▁you</text><text x="676" y="524" font-family="'Courier New',monospace" font-weight="700" font-size="22" fill="#3a4a7a" text-anchor="middle" opacity="0.55">need</text><text x="843" y="757" font-family="'Courier New',monospace" font-weight="700" font-size="22" fill="#3a4a7a" text-anchor="middle" opacity="0.55">&lt;eos&gt;</text><text x="10" y="990" font-family="'Courier New',monospace" font-weight="700" font-size="22" fill="#3a4a7a" text-anchor="middle" opacity="0.55">the</text><text x="177" y="223" font-family="'Courier New',monospace" font-weight="700" font-size="22" fill="#3a4a7a" text-anchor="middle" opacity="0.55">llma</text><text x="344" y="456" font-family="'Courier New',monospace" font-weight="700" font-size="22" fill="#3a4a7a" text-anchor="middle" opacity="0.55">▁of</text><text x="511" y="689" font-family="'Courier New',monospace" font-weight="700" font-size="22" fill="#3a4a7a" text-anchor="middle" opacity="0.55">token</text><text x="678" y="922" font-family="'Courier New',monospace" font-weight="700" font-size="22" fill="#3a4a7a" text-anchor="middle" opacity="0.55">0xAI</text><text x="845" y="155" font-family="'Courier New',monospace" font-weight="700" font-size="22" fill="#3a4a7a" text-anchor="middle" opacity="0.55">▁is</text><text x="12" y="388" font-family="'Courier New',monospace" font-weight="700" font-size="22" fill="#3a4a7a" text-anchor="middle" opacity="0.55">all</text><text x="179" y="621" font-family="'Courier New',monospace" font-weight="700" font-size="22" fill="#3a4a7a" text-anchor="middle" opacity="0.55">▁you</text><text x="346" y="854" font-family="'Courier New',monospace" font-weight="700" font-size="22" fill="#3a4a7a" text-anchor="middle" opacity="0.55">need</text><text x="513" y="87" font-family="'Courier New',monospace" font-weight="700" font-size="22" fill="#3a4a7a" text-anchor="middle" opacity="0.55">&lt;eos&gt;</text><text x="680" y="320" font-family="'Courier New',monospace" font-weight="700" font-size="22" fill="#3a4a7a" text-anchor="middle" opacity="0.55">the</text><text x="847" y="553" font-family="'Courier New',monospace" font-weight="700" font-size="22" fill="#3a4a7a" text-anchor="middle" opacity="0.55">llma</text><text x="14" y="786" font-family="'Courier New',monospace" font-weight="700" font-size="22" fill="#3a4a7a" text-anchor="middle" opacity="0.55">▁of</text><text x="181" y="19" font-family="'Courier New',monospace" font-weight="700" font-size="22" fill="#3a4a7a" text-anchor="middle" opacity="0.55">token</text><text x="348" y="252" font-family="'Courier New',monospace" font-weight="700" font-size="22" fill="#3a4a7a" text-anchor="middle" opacity="0.55">0xAI</text><text x="515" y="485" font-family="'Courier New',monospace" font-weight="700" font-size="22" fill="#3a4a7a" text-anchor="middle" opacity="0.55">▁is</text><text x="682" y="718" font-family="'Courier New',monospace" font-weight="700" font-size="22" fill="#3a4a7a" text-anchor="middle" opacity="0.55">all</text><text x="849" y="951" font-family="'Courier New',monospace" font-weight="700" font-size="22" fill="#3a4a7a" text-anchor="middle" opacity="0.55">▁you</text><text x="16" y="184" font-family="'Courier New',monospace" font-weight="700" font-size="22" fill="#3a4a7a" text-anchor="middle" opacity="0.55">need</text><text x="183" y="417" font-family="'Courier New',monospace" font-weight="700" font-size="22" fill="#3a4a7a" text-anchor="middle" opacity="0.55">&lt;eos&gt;</text><text x="350" y="650" font-family="'Courier New',monospace" font-weight="700" font-size="22" fill="#3a4a7a" text-anchor="middle" opacity="0.55">the</text><text x="517" y="883" font-family="'Courier New',monospace" font-weight="700" font-size="22" fill="#3a4a7a" text-anchor="middle" opacity="0.55">llma</text><text x="684" y="116" font-family="'Courier New',monospace" font-weight="700" font-size="22" fill="#3a4a7a" text-anchor="middle" opacity="0.55">▁of</text><text x="851" y="349" font-family="'Courier New',monospace" font-weight="700" font-size="22" fill="#3a4a7a" text-anchor="middle" opacity="0.55">token</text><text x="18" y="582" font-family="'Courier New',monospace" font-weight="700" font-size="22" fill="#3a4a7a" text-anchor="middle" opacity="0.55">0xAI</text><text x="185" y="815" font-family="'Courier New',monospace" font-weight="700" font-size="22" fill="#3a4a7a" text-anchor="middle" opacity="0.55">▁is</text><text x="352" y="48" font-family="'Courier New',monospace" font-weight="700" font-size="22" fill="#3a4a7a" text-anchor="middle" opacity="0.55">all</text><text x="519" y="281" font-family="'Courier New',monospace" font-weight="700" font-size="22" fill="#3a4a7a" text-anchor="middle" opacity="0.55">▁you</text><text x="686" y="514" font-family="'Courier New',monospace" font-weight="700" font-size="22" fill="#3a4a7a" text-anchor="middle" opacity="0.55">need</text><text x="853" y="747" font-family="'Courier New',monospace" font-weight="700" font-size="22" fill="#3a4a7a" text-anchor="middle" opacity="0.55">&lt;eos&gt;</text><g transform="rotate(-16 423 220)"><ellipse cx="423" cy="180" rx="42" ry="92" fill="#b9bec7" stroke="#15161a" stroke-width="7" stroke-linejoin="round" stroke-linecap="round"/><ellipse cx="423" cy="195" rx="18" ry="55" fill="#8b909b" /></g><g transform="rotate(16 577 220)"><ellipse cx="577" cy="180" rx="42" ry="92" fill="#b9bec7" stroke="#15161a" stroke-width="7" stroke-linejoin="round" stroke-linecap="round"/><ellipse cx="577" cy="195" rx="18" ry="55" fill="#8b909b" /></g><path d="M 386,632 C 352,790 350,910 372,1000 L 628,1000 C 650,910 648,790 614,632 Z" fill="#b9bec7" stroke="#15161a" stroke-width="7" stroke-linejoin="round" stroke-linecap="round"/><path d="M 386,632 C 352,790 350,910 372,1000 L 470,1000 C 452,900 452,800 470,632 Z" fill="#979daa" opacity="0.5"/><ellipse cx="500" cy="430" rx="190" ry="178" fill="#b9bec7" stroke="#15161a" stroke-width="7" stroke-linejoin="round" stroke-linecap="round"/><path d="M 410,300 q 30,-60 90,-30 q 60,-30 90,30 q -20,40 -90,30 q -70,10 -90,-30 Z" fill="#979daa" opacity="0.55"/><ellipse cx="500" cy="548" rx="126" ry="94" fill="#d8dce2" stroke="#15161a" stroke-width="7" stroke-linejoin="round" stroke-linecap="round"/><ellipse cx="466" cy="552" rx="11" ry="15" fill="#979daa" /><ellipse cx="534" cy="552" rx="11" ry="15" fill="#979daa" /><path d="M 372,1000 C 360,900 372,820 410,792 L 590,792 C 628,820 640,900 628,1000 Z" fill="#3a3f4b" stroke="#15161a" stroke-width="7" stroke-linejoin="round" stroke-linecap="round"/><path d="M 410,792 q 90,70 180,0 l -10,40 q -80,55 -160,0 Z" fill="#2c313b" stroke="" stroke-width="5" stroke-linejoin="round" stroke-linecap="round"/><text x="500" y="940" font-family="'Courier New',monospace" font-weight="700" font-size="40" fill="#7fd6ff" text-anchor="middle" >GPU</text><path d="M 458,618 Q 510,634 548,604" fill="none" stroke="#15161a" stroke-width="6" stroke-linejoin="round" stroke-linecap="round"/><circle cx="428" cy="408" r="30" fill="#ffffff" stroke="#15161a" stroke-width="5" stroke-linejoin="round" stroke-linecap="round"/><circle cx="432" cy="410" r="12" fill="#1b1d22" /><circle cx="572" cy="408" r="30" fill="#ffffff" stroke="#15161a" stroke-width="5" stroke-linejoin="round" stroke-linecap="round"/><circle cx="576" cy="410" r="12" fill="#1b1d22" /><circle cx="500" cy="218" r="56" fill="#2c313b" stroke="#15161a" stroke-width="7" stroke-linejoin="round" stroke-linecap="round"/><path d="M 500,218 L 550,218 A 50 50 0 0 1 531.0804984135332,257.16634548137415 Z" fill="#9aa7b8"/><path d="M 500,218 L 527.015115293407,260.0735492403948 A 50 50 0 0 1 483.8355216568248,265.3150043843707 Z" fill="#9aa7b8"/><path d="M 500,218 L 479.1926581726429,263.4648713412841 A 50 50 0 0 1 451.45209174252045,229.96246646069912 Z" fill="#9aa7b8"/><path d="M 500,218 L 450.5003751699777,225.05600040299336 A 50 50 0 0 1 463.703384789993,183.6116920408013 Z" fill="#9aa7b8"/><path d="M 500,218 L 467.3178189568194,180.1598752346036 A 50 50 0 0 1 509.3256184711288,168.87736936878338 Z" fill="#9aa7b8"/><path d="M 500,218 L 514.1831092731613,170.05378626684308 A 50 50 0 0 1 546.3739215372018,199.3061667584882 Z" fill="#9aa7b8"/><circle cx="500" cy="218" r="12" fill="#15161a" /></svg>