<svg xmlns="http://www.w3.org/2000/svg" viewBox="0 0 1000 1000" width="1000" height="1000"><rect x="0" y="0" width="1000" height="1000" fill="#1247c4" /><text x="500" y="300" font-family="'Courier New',monospace" font-weight="700" font-size="120" fill="#ffffff" text-anchor="middle" >:(</text><text x="500" y="420" font-family="'Courier New',monospace" font-weight="700" font-size="30" fill="#dbe6ff" text-anchor="middle" >MODEL_NOT_RESPONDING</text><text x="500" y="470" font-family="'Courier New',monospace" font-weight="700" font-size="22" fill="#aac2ff" text-anchor="middle" >0x4800 — your LLMa ran out of VRAM</text><g transform="rotate(-16 423 220)"><ellipse cx="423" cy="180" rx="42" ry="92" fill="#b07d4e" stroke="#15161a" stroke-width="7" stroke-linejoin="round" stroke-linecap="round"/><ellipse cx="423" cy="195" rx="18" ry="55" fill="#8a5a34" /></g><g transform="rotate(16 577 220)"><ellipse cx="577" cy="180" rx="42" ry="92" fill="#b07d4e" stroke="#15161a" stroke-width="7" stroke-linejoin="round" stroke-linecap="round"/><ellipse cx="577" cy="195" rx="18" ry="55" fill="#8a5a34" /></g><path d="M 386,632 C 352,790 350,910 372,1000 L 628,1000 C 650,910 648,790 614,632 Z" fill="#b07d4e" stroke="#15161a" stroke-width="7" stroke-linejoin="round" stroke-linecap="round"/><path d="M 386,632 C 352,790 350,910 372,1000 L 470,1000 C 452,900 452,800 470,632 Z" fill="#92653b" opacity="0.5"/><ellipse cx="500" cy="430" rx="190" ry="178" fill="#b07d4e" stroke="#15161a" stroke-width="7" stroke-linejoin="round" stroke-linecap="round"/><path d="M 410,300 q 30,-60 90,-30 q 60,-30 90,30 q -20,40 -90,30 q -70,10 -90,-30 Z" fill="#92653b" opacity="0.55"/><ellipse cx="500" cy="548" rx="126" ry="94" fill="#d8b388" stroke="#15161a" stroke-width="7" stroke-linejoin="round" stroke-linecap="round"/><ellipse cx="466" cy="552" rx="11" ry="15" fill="#92653b" /><ellipse cx="534" cy="552" rx="11" ry="15" fill="#92653b" /><path d="M 372,1000 C 360,900 372,820 410,792 L 590,792 C 628,820 640,900 628,1000 Z" fill="#3a3f4b" stroke="#15161a" stroke-width="7" stroke-linejoin="round" stroke-linecap="round"/><path d="M 410,792 q 90,70 180,0 l -10,40 q -80,55 -160,0 Z" fill="#2c313b" stroke="" stroke-width="5" stroke-linejoin="round" stroke-linecap="round"/><text x="500" y="940" font-family="'Courier New',monospace" font-weight="700" font-size="40" fill="#7fd6ff" text-anchor="middle" >GPU</text><path d="M 430,760 Q 500,820 570,760" fill="none" stroke="#9aa7b8" stroke-width="8" stroke-linejoin="round" stroke-linecap="round"/><rect x="470" y="794" width="60" height="44" fill="#2c313b" stroke="#15161a" stroke-width="7" stroke-linejoin="round" stroke-linecap="round"/><line x1="478" y1="838" x2="478" y2="852" stroke="#9aa7b8" stroke-width="4" /><line x1="522" y1="838" x2="522" y2="852" stroke="#9aa7b8" stroke-width="4" /><path d="M 460,612 Q 500,626 540,612" fill="none" stroke="#15161a" stroke-width="6" stroke-linejoin="round" stroke-linecap="round"/><circle cx="428" cy="408" r="16" fill="#ff2b3b" /><line x1="428" y1="408" x2="168" y2="208" stroke="#ff2b3b" stroke-width="10" opacity="0.85"/><circle cx="572" cy="408" r="16" fill="#ff2b3b" /><line x1="572" y1="408" x2="832" y2="208" stroke="#ff2b3b" stroke-width="10" opacity="0.85"/><path d="M 350,278 Q 500,108 650,278" fill="none" stroke="#1b1d22" stroke-width="16" stroke-linejoin="round" stroke-linecap="round"/><rect x="330" y="268" width="44" height="90" fill="#2c313b" stroke="#15161a" stroke-width="7" stroke-linejoin="round" stroke-linecap="round"/><rect x="626" y="268" width="44" height="90" fill="#2c313b" stroke="#15161a" stroke-width="7" stroke-linejoin="round" stroke-linecap="round"/></svg>