<svg xmlns="http://www.w3.org/2000/svg" viewBox="0 0 1000 1000" width="1000" height="1000"><defs><linearGradient id="visor" x1="0" y1="0" x2="1" y2="0"><stop offset="0" stop-color="#19f0c8"/><stop offset="1" stop-color="#1d8bff"/></linearGradient></defs><rect x="0" y="0" width="1000" height="1000" fill="#0b1a0f" /><text x="60" y="70" font-family="'Courier New',monospace" font-weight="700" font-size="26" fill="#1e7a3a" text-anchor="start" opacity="0.5">0101 LLMA &gt; train --epoch 0</text><text x="60" y="136" font-family="'Courier New',monospace" font-weight="700" font-size="26" fill="#1e7a3a" text-anchor="start" opacity="0.5">0101 LLMA &gt; train --epoch 1</text><text x="60" y="202" font-family="'Courier New',monospace" font-weight="700" font-size="26" fill="#1e7a3a" text-anchor="start" opacity="0.5">0101 LLMA &gt; train --epoch 2</text><text x="60" y="268" font-family="'Courier New',monospace" font-weight="700" font-size="26" fill="#1e7a3a" text-anchor="start" opacity="0.5">0101 LLMA &gt; train --epoch 3</text><text x="60" y="334" font-family="'Courier New',monospace" font-weight="700" font-size="26" fill="#1e7a3a" text-anchor="start" opacity="0.5">0101 LLMA &gt; train --epoch 4</text><text x="60" y="400" font-family="'Courier New',monospace" font-weight="700" font-size="26" fill="#1e7a3a" text-anchor="start" opacity="0.5">0101 LLMA &gt; train --epoch 5</text><text x="60" y="466" font-family="'Courier New',monospace" font-weight="700" font-size="26" fill="#1e7a3a" text-anchor="start" opacity="0.5">0101 LLMA &gt; train --epoch 6</text><text x="60" y="532" font-family="'Courier New',monospace" font-weight="700" font-size="26" fill="#1e7a3a" text-anchor="start" opacity="0.5">0101 LLMA &gt; train --epoch 7</text><text x="60" y="598" font-family="'Courier New',monospace" font-weight="700" font-size="26" fill="#1e7a3a" text-anchor="start" opacity="0.5">0101 LLMA &gt; train --epoch 8</text><text x="60" y="664" font-family="'Courier New',monospace" font-weight="700" font-size="26" fill="#1e7a3a" text-anchor="start" opacity="0.5">0101 LLMA &gt; train --epoch 9</text><text x="60" y="730" font-family="'Courier New',monospace" font-weight="700" font-size="26" fill="#1e7a3a" text-anchor="start" opacity="0.5">0101 LLMA &gt; train --epoch 10</text><text x="60" y="796" font-family="'Courier New',monospace" font-weight="700" font-size="26" fill="#1e7a3a" text-anchor="start" opacity="0.5">0101 LLMA &gt; train --epoch 11</text><text x="60" y="862" font-family="'Courier New',monospace" font-weight="700" font-size="26" fill="#1e7a3a" text-anchor="start" opacity="0.5">0101 LLMA &gt; train --epoch 12</text><text x="60" y="928" font-family="'Courier New',monospace" font-weight="700" font-size="26" fill="#1e7a3a" text-anchor="start" opacity="0.5">0101 LLMA &gt; train --epoch 13</text><g transform="rotate(-16 423 220)"><ellipse cx="423" cy="180" rx="42" ry="92" fill="#f3b6c9" stroke="#15161a" stroke-width="7" stroke-linejoin="round" stroke-linecap="round"/><ellipse cx="423" cy="195" rx="18" ry="55" fill="#e58aa8" /></g><g transform="rotate(16 577 220)"><ellipse cx="577" cy="180" rx="42" ry="92" fill="#f3b6c9" stroke="#15161a" stroke-width="7" stroke-linejoin="round" stroke-linecap="round"/><ellipse cx="577" cy="195" rx="18" ry="55" fill="#e58aa8" /></g><path d="M 386,632 C 352,790 350,910 372,1000 L 628,1000 C 650,910 648,790 614,632 Z" fill="#f3b6c9" stroke="#15161a" stroke-width="7" stroke-linejoin="round" stroke-linecap="round"/><path d="M 386,632 C 352,790 350,910 372,1000 L 470,1000 C 452,900 452,800 470,632 Z" fill="#e58aa8" opacity="0.5"/><ellipse cx="500" cy="430" rx="190" ry="178" fill="#f3b6c9" stroke="#15161a" stroke-width="7" stroke-linejoin="round" stroke-linecap="round"/><path d="M 410,300 q 30,-60 90,-30 q 60,-30 90,30 q -20,40 -90,30 q -70,10 -90,-30 Z" fill="#e58aa8" opacity="0.55"/><ellipse cx="500" cy="548" rx="126" ry="94" fill="#ffd9e4" stroke="#15161a" stroke-width="7" stroke-linejoin="round" stroke-linecap="round"/><ellipse cx="466" cy="552" rx="11" ry="15" fill="#e58aa8" /><ellipse cx="534" cy="552" rx="11" ry="15" fill="#e58aa8" /><path d="M 372,1000 C 360,900 372,820 410,792 L 590,792 C 628,820 640,900 628,1000 Z" fill="#3a3f4b" stroke="#15161a" stroke-width="7" stroke-linejoin="round" stroke-linecap="round"/><path d="M 410,792 q 90,70 180,0 l -10,40 q -80,55 -160,0 Z" fill="#2c313b" stroke="" stroke-width="5" stroke-linejoin="round" stroke-linecap="round"/><text x="500" y="940" font-family="'Courier New',monospace" font-weight="700" font-size="40" fill="#7fd6ff" text-anchor="middle" >GPU</text><path d="M 462,612 Q 500,624 538,612" fill="none" stroke="#15161a" stroke-width="6" stroke-linejoin="round" stroke-linecap="round"/><polygon points="520,612 560,566 540,610" fill="#5fbf4a" stroke="#2f7a25" stroke-width="3" stroke-linejoin="round" stroke-linecap="round"/><polygon points="540,612 588,582 556,612" fill="#6fd05a" stroke="#2f7a25" stroke-width="3" stroke-linejoin="round" stroke-linecap="round"/><path d="M 368,390 h 280 a 24 24 0 0 1 0 48 h -280 a 24 24 0 0 1 0 -48 Z" fill="url(#visor)" stroke="#15161a" stroke-width="7" stroke-linejoin="round" stroke-linecap="round"/><line x1="378" y1="408" x2="622" y2="408" stroke="#0a3a4a" stroke-width="3" /><rect x="494" y="162" width="14" height="80" fill="#3ad07a" /><text x="500" y="254" font-family="'Courier New',monospace" font-weight="700" font-size="20" fill="#3ad07a" text-anchor="middle" >&gt;_</text><line x1="0" y1="0" x2="500" y2="430" stroke="#7f9bff" stroke-width="1.5" opacity="0.35"/><line x1="91" y1="0" x2="500" y2="430" stroke="#7f9bff" stroke-width="1.5" opacity="0.35"/><line x1="182" y1="0" x2="500" y2="430" stroke="#7f9bff" stroke-width="1.5" opacity="0.35"/><line x1="273" y1="0" x2="500" y2="430" stroke="#7f9bff" stroke-width="1.5" opacity="0.35"/><line x1="364" y1="0" x2="500" y2="430" stroke="#7f9bff" stroke-width="1.5" opacity="0.35"/><line x1="455" y1="0" x2="500" y2="430" stroke="#7f9bff" stroke-width="1.5" opacity="0.35"/><line x1="546" y1="0" x2="500" y2="430" stroke="#7f9bff" stroke-width="1.5" opacity="0.35"/><line x1="637" y1="0" x2="500" y2="430" stroke="#7f9bff" stroke-width="1.5" opacity="0.35"/><line x1="728" y1="0" x2="500" y2="430" stroke="#7f9bff" stroke-width="1.5" opacity="0.35"/><line x1="819" y1="0" x2="500" y2="430" stroke="#7f9bff" stroke-width="1.5" opacity="0.35"/><line x1="910" y1="0" x2="500" y2="430" stroke="#7f9bff" stroke-width="1.5" opacity="0.35"/><line x1="1" y1="0" x2="500" y2="430" stroke="#7f9bff" stroke-width="1.5" opacity="0.35"/></svg>