<svg xmlns="http://www.w3.org/2000/svg" viewBox="0 0 1000 1000" width="1000" height="1000"><rect x="0" y="0" width="1000" height="1000" fill="#101216" /><rect x="120" y="70" width="760" height="64" fill="#1b1f27" stroke="#0a0b0e" stroke-width="3" stroke-linejoin="round" stroke-linecap="round"/><circle cx="180" cy="102" r="7" fill="#3ad07a" /><circle cx="280" cy="102" r="7" fill="#243042" /><circle cx="380" cy="102" r="7" fill="#243042" /><circle cx="480" cy="102" r="7" fill="#243042" /><circle cx="580" cy="102" r="7" fill="#3ad07a" /><circle cx="680" cy="102" r="7" fill="#243042" /><circle cx="780" cy="102" r="7" fill="#243042" /><rect x="120" y="165" width="760" height="64" fill="#1b1f27" stroke="#0a0b0e" stroke-width="3" stroke-linejoin="round" stroke-linecap="round"/><circle cx="180" cy="197" r="7" fill="#243042" /><circle cx="280" cy="197" r="7" fill="#243042" /><circle cx="380" cy="197" r="7" fill="#243042" /><circle cx="480" cy="197" r="7" fill="#3ad07a" /><circle cx="580" cy="197" r="7" fill="#243042" /><circle cx="680" cy="197" r="7" fill="#243042" /><circle cx="780" cy="197" r="7" fill="#243042" /><rect x="120" y="260" width="760" height="64" fill="#1b1f27" stroke="#0a0b0e" stroke-width="3" stroke-linejoin="round" stroke-linecap="round"/><circle cx="180" cy="292" r="7" fill="#243042" /><circle cx="280" cy="292" r="7" fill="#243042" /><circle cx="380" cy="292" r="7" fill="#3ad07a" /><circle cx="480" cy="292" r="7" fill="#243042" /><circle cx="580" cy="292" r="7" fill="#243042" /><circle cx="680" cy="292" r="7" fill="#243042" /><circle cx="780" cy="292" r="7" fill="#3ad07a" /><rect x="120" y="355" width="760" height="64" fill="#1b1f27" stroke="#0a0b0e" stroke-width="3" stroke-linejoin="round" stroke-linecap="round"/><circle cx="180" cy="387" r="7" fill="#243042" /><circle cx="280" cy="387" r="7" fill="#3ad07a" /><circle cx="380" cy="387" r="7" fill="#243042" /><circle cx="480" cy="387" r="7" fill="#243042" /><circle cx="580" cy="387" r="7" fill="#243042" /><circle cx="680" cy="387" r="7" fill="#3ad07a" /><circle cx="780" cy="387" r="7" fill="#243042" /><rect x="120" y="450" width="760" height="64" fill="#1b1f27" stroke="#0a0b0e" stroke-width="3" stroke-linejoin="round" stroke-linecap="round"/><circle cx="180" cy="482" r="7" fill="#3ad07a" /><circle cx="280" cy="482" r="7" fill="#243042" /><circle cx="380" cy="482" r="7" fill="#243042" /><circle cx="480" cy="482" r="7" fill="#243042" /><circle cx="580" cy="482" r="7" fill="#3ad07a" /><circle cx="680" cy="482" r="7" fill="#243042" /><circle cx="780" cy="482" r="7" fill="#243042" /><rect x="120" y="545" width="760" height="64" fill="#1b1f27" stroke="#0a0b0e" stroke-width="3" stroke-linejoin="round" stroke-linecap="round"/><circle cx="180" cy="577" r="7" fill="#243042" /><circle cx="280" cy="577" r="7" fill="#243042" /><circle cx="380" cy="577" r="7" fill="#243042" /><circle cx="480" cy="577" r="7" fill="#3ad07a" /><circle cx="580" cy="577" r="7" fill="#243042" /><circle cx="680" cy="577" r="7" fill="#243042" /><circle cx="780" cy="577" r="7" fill="#243042" /><rect x="120" y="640" width="760" height="64" fill="#1b1f27" stroke="#0a0b0e" stroke-width="3" stroke-linejoin="round" stroke-linecap="round"/><circle cx="180" cy="672" r="7" fill="#243042" /><circle cx="280" cy="672" r="7" fill="#243042" /><circle cx="380" cy="672" r="7" fill="#3ad07a" /><circle cx="480" cy="672" r="7" fill="#243042" /><circle cx="580" cy="672" r="7" fill="#243042" /><circle cx="680" cy="672" r="7" fill="#243042" /><circle cx="780" cy="672" r="7" fill="#3ad07a" /><rect x="120" y="735" width="760" height="64" fill="#1b1f27" stroke="#0a0b0e" stroke-width="3" stroke-linejoin="round" stroke-linecap="round"/><circle cx="180" cy="767" r="7" fill="#243042" /><circle cx="280" cy="767" r="7" fill="#3ad07a" /><circle cx="380" cy="767" r="7" fill="#243042" /><circle cx="480" cy="767" r="7" fill="#243042" /><circle cx="580" cy="767" r="7" fill="#243042" /><circle cx="680" cy="767" r="7" fill="#3ad07a" /><circle cx="780" cy="767" r="7" fill="#243042" /><rect x="120" y="830" width="760" height="64" fill="#1b1f27" stroke="#0a0b0e" stroke-width="3" stroke-linejoin="round" stroke-linecap="round"/><circle cx="180" cy="862" r="7" fill="#3ad07a" /><circle cx="280" cy="862" r="7" fill="#243042" /><circle cx="380" cy="862" r="7" fill="#243042" /><circle cx="480" cy="862" r="7" fill="#243042" /><circle cx="580" cy="862" r="7" fill="#3ad07a" /><circle cx="680" cy="862" r="7" fill="#243042" /><circle cx="780" cy="862" r="7" fill="#243042" /><g transform="rotate(-16 423 220)"><ellipse cx="423" cy="180" rx="42" ry="92" fill="#f3e9d2" stroke="#15161a" stroke-width="7" stroke-linejoin="round" stroke-linecap="round"/><ellipse cx="423" cy="195" rx="18" ry="55" fill="#e7c3ad" /></g><g transform="rotate(16 577 220)"><ellipse cx="577" cy="180" rx="42" ry="92" fill="#f3e9d2" stroke="#15161a" stroke-width="7" stroke-linejoin="round" stroke-linecap="round"/><ellipse cx="577" cy="195" rx="18" ry="55" fill="#e7c3ad" /></g><path d="M 386,632 C 352,790 350,910 372,1000 L 628,1000 C 650,910 648,790 614,632 Z" fill="#f3e9d2" stroke="#15161a" stroke-width="7" stroke-linejoin="round" stroke-linecap="round"/><path d="M 386,632 C 352,790 350,910 372,1000 L 470,1000 C 452,900 452,800 470,632 Z" fill="#e3d3b0" opacity="0.5"/><ellipse cx="500" cy="430" rx="190" ry="178" fill="#f3e9d2" stroke="#15161a" stroke-width="7" stroke-linejoin="round" stroke-linecap="round"/><path d="M 410,300 q 30,-60 90,-30 q 60,-30 90,30 q -20,40 -90,30 q -70,10 -90,-30 Z" fill="#e3d3b0" opacity="0.55"/><ellipse cx="500" cy="548" rx="126" ry="94" fill="#fbf6ea" stroke="#15161a" stroke-width="7" stroke-linejoin="round" stroke-linecap="round"/><ellipse cx="466" cy="552" rx="11" ry="15" fill="#e3d3b0" /><ellipse cx="534" cy="552" rx="11" ry="15" fill="#e3d3b0" /><ellipse cx="500" cy="624" rx="30" ry="22" fill="#3a1f2a" stroke="#15161a" stroke-width="6" stroke-linejoin="round" stroke-linecap="round"/><ellipse cx="500" cy="632" rx="16" ry="9" fill="#e06a8a" /><rect x="378" y="382" width="220" height="52" fill="#101216" stroke="#15161a" stroke-width="7" stroke-linejoin="round" stroke-linecap="round"/><rect x="384" y="390" width="18" height="18" fill="#ff3b6b" /><rect x="414" y="390" width="18" height="18" fill="#ff3b6b" /><rect x="444" y="390" width="18" height="18" fill="#ff3b6b" /><rect x="474" y="390" width="18" height="18" fill="#ff3b6b" /><rect x="504" y="390" width="18" height="18" fill="#ff3b6b" /><g><circle cx="430" cy="188" r="14" fill="#cfd6e2" stroke="#15161a" stroke-width="7" stroke-linejoin="round" stroke-linecap="round"/><circle cx="500" cy="168" r="16" fill="#cfd6e2" stroke="#15161a" stroke-width="7" stroke-linejoin="round" stroke-linecap="round"/><circle cx="570" cy="188" r="14" fill="#cfd6e2" stroke="#15161a" stroke-width="7" stroke-linejoin="round" stroke-linecap="round"/><text x="500" y="174" font-family="'Courier New',monospace" font-weight="700" font-size="26" fill="#1b1d22" text-anchor="middle" >…</text></g></svg>