<svg xmlns="http://www.w3.org/2000/svg" viewBox="0 0 1000 1000" width="1000" height="1000"><defs><radialGradient id="latent" cx="0.5" cy="0.45" r="0.75"><stop offset="0" stop-color="#241b3a"/><stop offset="1" stop-color="#0a0814"/></radialGradient><radialGradient id="nh" cx="0.5" cy="0.5" r="0.5"><stop offset="0" stop-color="#aef9ff"/><stop offset="1" stop-color="#7f5bff"/></radialGradient></defs><rect x="0" y="0" width="1000" height="1000" fill="url(#latent)" /><circle cx="0" cy="30" r="1" fill="#cdb8ff" opacity="0.8"/><circle cx="113" cy="227" r="2" fill="#cdb8ff" opacity="0.8"/><circle cx="226" cy="424" r="3" fill="#cdb8ff" opacity="0.8"/><circle cx="339" cy="621" r="1" fill="#cdb8ff" opacity="0.8"/><circle cx="452" cy="818" r="2" fill="#cdb8ff" opacity="0.8"/><circle cx="565" cy="15" r="3" fill="#cdb8ff" opacity="0.8"/><circle cx="678" cy="212" r="1" fill="#cdb8ff" opacity="0.8"/><circle cx="791" cy="409" r="2" fill="#cdb8ff" opacity="0.8"/><circle cx="904" cy="606" r="3" fill="#cdb8ff" opacity="0.8"/><circle cx="17" cy="803" r="1" fill="#cdb8ff" opacity="0.8"/><circle cx="130" cy="0" r="2" fill="#cdb8ff" opacity="0.8"/><circle cx="243" cy="197" r="3" fill="#cdb8ff" opacity="0.8"/><circle cx="356" cy="394" r="1" fill="#cdb8ff" opacity="0.8"/><circle cx="469" cy="591" r="2" fill="#cdb8ff" opacity="0.8"/><circle cx="582" cy="788" r="3" fill="#cdb8ff" opacity="0.8"/><circle cx="695" cy="985" r="1" fill="#cdb8ff" opacity="0.8"/><circle cx="808" cy="182" r="2" fill="#cdb8ff" opacity="0.8"/><circle cx="921" cy="379" r="3" fill="#cdb8ff" opacity="0.8"/><circle cx="34" cy="576" r="1" fill="#cdb8ff" opacity="0.8"/><circle cx="147" cy="773" r="2" fill="#cdb8ff" opacity="0.8"/><circle cx="260" cy="970" r="3" fill="#cdb8ff" opacity="0.8"/><circle cx="373" cy="167" r="1" fill="#cdb8ff" opacity="0.8"/><circle cx="486" cy="364" r="2" fill="#cdb8ff" opacity="0.8"/><circle cx="599" cy="561" r="3" fill="#cdb8ff" opacity="0.8"/><circle cx="712" cy="758" r="1" fill="#cdb8ff" opacity="0.8"/><circle cx="825" cy="955" r="2" fill="#cdb8ff" opacity="0.8"/><circle cx="938" cy="152" r="3" fill="#cdb8ff" opacity="0.8"/><circle cx="51" cy="349" r="1" fill="#cdb8ff" opacity="0.8"/><circle cx="164" cy="546" r="2" fill="#cdb8ff" opacity="0.8"/><circle cx="277" cy="743" r="3" fill="#cdb8ff" opacity="0.8"/><circle cx="390" cy="940" r="1" fill="#cdb8ff" opacity="0.8"/><circle cx="503" cy="137" r="2" fill="#cdb8ff" opacity="0.8"/><circle cx="616" cy="334" r="3" fill="#cdb8ff" opacity="0.8"/><circle cx="729" cy="531" r="1" fill="#cdb8ff" opacity="0.8"/><circle cx="842" cy="728" r="2" fill="#cdb8ff" opacity="0.8"/><circle cx="955" cy="925" r="3" fill="#cdb8ff" opacity="0.8"/><circle cx="68" cy="122" r="1" fill="#cdb8ff" opacity="0.8"/><circle cx="181" cy="319" r="2" fill="#cdb8ff" opacity="0.8"/><circle cx="294" cy="516" r="3" fill="#cdb8ff" opacity="0.8"/><circle cx="407" cy="713" r="1" fill="#cdb8ff" opacity="0.8"/><circle cx="520" cy="910" r="2" fill="#cdb8ff" opacity="0.8"/><circle cx="633" cy="107" r="3" fill="#cdb8ff" opacity="0.8"/><circle cx="746" cy="304" r="1" fill="#cdb8ff" opacity="0.8"/><circle cx="859" cy="501" r="2" fill="#cdb8ff" opacity="0.8"/><circle cx="972" cy="698" r="3" fill="#cdb8ff" opacity="0.8"/><circle cx="85" cy="895" r="1" fill="#cdb8ff" opacity="0.8"/><circle cx="198" cy="92" r="2" fill="#cdb8ff" opacity="0.8"/><circle cx="311" cy="289" r="3" fill="#cdb8ff" opacity="0.8"/><circle cx="424" cy="486" r="1" fill="#cdb8ff" opacity="0.8"/><circle cx="537" cy="683" r="2" fill="#cdb8ff" opacity="0.8"/><circle cx="650" cy="880" r="3" fill="#cdb8ff" opacity="0.8"/><circle cx="763" cy="77" r="1" fill="#cdb8ff" opacity="0.8"/><circle cx="876" cy="274" r="2" fill="#cdb8ff" opacity="0.8"/><circle cx="989" cy="471" r="3" fill="#cdb8ff" opacity="0.8"/><circle cx="102" cy="668" r="1" fill="#cdb8ff" opacity="0.8"/><circle cx="215" cy="865" r="2" fill="#cdb8ff" opacity="0.8"/><circle cx="328" cy="62" r="3" fill="#cdb8ff" opacity="0.8"/><circle cx="441" cy="259" r="1" fill="#cdb8ff" opacity="0.8"/><circle cx="554" cy="456" r="2" fill="#cdb8ff" opacity="0.8"/><circle cx="667" cy="653" r="3" fill="#cdb8ff" opacity="0.8"/><circle cx="780" cy="850" r="1" fill="#cdb8ff" opacity="0.8"/><circle cx="893" cy="47" r="2" fill="#cdb8ff" opacity="0.8"/><circle cx="6" cy="244" r="3" fill="#cdb8ff" opacity="0.8"/><circle cx="119" cy="441" r="1" fill="#cdb8ff" opacity="0.8"/><circle cx="232" cy="638" r="2" fill="#cdb8ff" opacity="0.8"/><circle cx="345" cy="835" r="3" fill="#cdb8ff" opacity="0.8"/><circle cx="458" cy="32" r="1" fill="#cdb8ff" opacity="0.8"/><circle cx="571" cy="229" r="2" fill="#cdb8ff" opacity="0.8"/><circle cx="684" cy="426" r="3" fill="#cdb8ff" opacity="0.8"/><circle cx="797" cy="623" r="1" fill="#cdb8ff" opacity="0.8"/><circle cx="910" cy="820" r="2" fill="#cdb8ff" opacity="0.8"/><circle cx="23" cy="17" r="3" fill="#cdb8ff" opacity="0.8"/><circle cx="136" cy="214" r="1" fill="#cdb8ff" opacity="0.8"/><circle cx="249" cy="411" r="2" fill="#cdb8ff" opacity="0.8"/><circle cx="362" cy="608" r="3" fill="#cdb8ff" opacity="0.8"/><circle cx="475" cy="805" r="1" fill="#cdb8ff" opacity="0.8"/><circle cx="588" cy="2" r="2" fill="#cdb8ff" opacity="0.8"/><circle cx="701" cy="199" r="3" fill="#cdb8ff" opacity="0.8"/><circle cx="814" cy="396" r="1" fill="#cdb8ff" opacity="0.8"/><circle cx="927" cy="593" r="2" fill="#cdb8ff" opacity="0.8"/><circle cx="40" cy="790" r="3" fill="#cdb8ff" opacity="0.8"/><circle cx="153" cy="987" r="1" fill="#cdb8ff" opacity="0.8"/><circle cx="266" cy="184" r="2" fill="#cdb8ff" opacity="0.8"/><circle cx="379" cy="381" r="3" fill="#cdb8ff" opacity="0.8"/><circle cx="492" cy="578" r="1" fill="#cdb8ff" opacity="0.8"/><circle cx="605" cy="775" r="2" fill="#cdb8ff" opacity="0.8"/><circle cx="718" cy="972" r="3" fill="#cdb8ff" opacity="0.8"/><circle cx="831" cy="169" r="1" fill="#cdb8ff" opacity="0.8"/><circle cx="944" cy="366" r="2" fill="#cdb8ff" opacity="0.8"/><circle cx="57" cy="563" r="3" fill="#cdb8ff" opacity="0.8"/><g transform="rotate(-16 423 220)"><ellipse cx="423" cy="180" rx="42" ry="92" fill="#b9bec7" stroke="#15161a" stroke-width="7" stroke-linejoin="round" stroke-linecap="round"/><ellipse cx="423" cy="195" rx="18" ry="55" fill="#8b909b" /></g><g transform="rotate(16 577 220)"><ellipse cx="577" cy="180" rx="42" ry="92" fill="#b9bec7" stroke="#15161a" stroke-width="7" stroke-linejoin="round" stroke-linecap="round"/><ellipse cx="577" cy="195" rx="18" ry="55" fill="#8b909b" /></g><path d="M 386,632 C 352,790 350,910 372,1000 L 628,1000 C 650,910 648,790 614,632 Z" fill="#b9bec7" stroke="#15161a" stroke-width="7" stroke-linejoin="round" stroke-linecap="round"/><path d="M 386,632 C 352,790 350,910 372,1000 L 470,1000 C 452,900 452,800 470,632 Z" fill="#979daa" opacity="0.5"/><ellipse cx="500" cy="430" rx="190" ry="178" fill="#b9bec7" stroke="#15161a" stroke-width="7" stroke-linejoin="round" stroke-linecap="round"/><path d="M 410,300 q 30,-60 90,-30 q 60,-30 90,30 q -20,40 -90,30 q -70,10 -90,-30 Z" fill="#979daa" opacity="0.55"/><ellipse cx="500" cy="548" rx="126" ry="94" fill="#d8dce2" stroke="#15161a" stroke-width="7" stroke-linejoin="round" stroke-linecap="round"/><ellipse cx="466" cy="552" rx="11" ry="15" fill="#979daa" /><ellipse cx="534" cy="552" rx="11" ry="15" fill="#979daa" /><path d="M 372,1000 C 360,900 372,820 410,792 L 590,792 C 628,820 640,900 628,1000 Z" fill="#3a3f4b" stroke="#15161a" stroke-width="7" stroke-linejoin="round" stroke-linecap="round"/><path d="M 410,792 q 90,70 180,0 l -10,40 q -80,55 -160,0 Z" fill="#2c313b" stroke="" stroke-width="5" stroke-linejoin="round" stroke-linecap="round"/><text x="500" y="940" font-family="'Courier New',monospace" font-weight="700" font-size="40" fill="#7fd6ff" text-anchor="middle" >GPU</text><path d="M 430,760 Q 500,820 570,760" fill="none" stroke="#9aa7b8" stroke-width="8" stroke-linejoin="round" stroke-linecap="round"/><rect x="470" y="794" width="60" height="44" fill="#2c313b" stroke="#15161a" stroke-width="7" stroke-linejoin="round" stroke-linecap="round"/><line x1="478" y1="838" x2="478" y2="852" stroke="#9aa7b8" stroke-width="4" /><line x1="522" y1="838" x2="522" y2="852" stroke="#9aa7b8" stroke-width="4" /><path d="M 458,618 Q 510,634 548,604" fill="none" stroke="#15161a" stroke-width="6" stroke-linejoin="round" stroke-linecap="round"/><circle cx="428" cy="408" r="30" fill="#ffffff" stroke="#15161a" stroke-width="5" stroke-linejoin="round" stroke-linecap="round"/><circle cx="432" cy="410" r="12" fill="#1b1d22" /><circle cx="572" cy="408" r="30" fill="#ffffff" stroke="#15161a" stroke-width="5" stroke-linejoin="round" stroke-linecap="round"/><circle cx="576" cy="410" r="12" fill="#1b1d22" /><ellipse cx="500" cy="178" rx="150" ry="40" fill="none" stroke="url(#nh)" stroke-width="6" stroke-linejoin="round" stroke-linecap="round"/><circle cx="650" cy="178" r="8" fill="#aef9ff" stroke="#7f5bff" stroke-width="2" stroke-linejoin="round" stroke-linecap="round"/><line x1="650" y1="178" x2="500" y2="178" stroke="#aef9ff" stroke-width="1.5" opacity="0.5"/><circle cx="614.9066664678467" cy="203.71150438746156" r="8" fill="#aef9ff" stroke="#7f5bff" stroke-width="2" stroke-linejoin="round" stroke-linecap="round"/><line x1="614.9066664678467" y1="203.71150438746156" x2="500" y2="178" stroke="#aef9ff" stroke-width="1.5" opacity="0.5"/><circle cx="526.0472266500395" cy="217.39231012048833" r="8" fill="#aef9ff" stroke="#7f5bff" stroke-width="2" stroke-linejoin="round" stroke-linecap="round"/><line x1="526.0472266500395" y1="217.39231012048833" x2="500" y2="178" stroke="#aef9ff" stroke-width="1.5" opacity="0.5"/><circle cx="425" cy="212.64101615137756" r="8" fill="#aef9ff" stroke="#7f5bff" stroke-width="2" stroke-linejoin="round" stroke-linecap="round"/><line x1="425" y1="212.64101615137756" x2="500" y2="178" stroke="#aef9ff" stroke-width="1.5" opacity="0.5"/><circle cx="359.04610688211375" cy="191.68080573302674" r="8" fill="#aef9ff" stroke="#7f5bff" stroke-width="2" stroke-linejoin="round" stroke-linecap="round"/><line x1="359.04610688211375" y1="191.68080573302674" x2="500" y2="178" stroke="#aef9ff" stroke-width="1.5" opacity="0.5"/><circle cx="359.04610688211375" cy="164.31919426697326" r="8" fill="#aef9ff" stroke="#7f5bff" stroke-width="2" stroke-linejoin="round" stroke-linecap="round"/><line x1="359.04610688211375" y1="164.31919426697326" x2="500" y2="178" stroke="#aef9ff" stroke-width="1.5" opacity="0.5"/><circle cx="424.99999999999994" cy="143.35898384862247" r="8" fill="#aef9ff" stroke="#7f5bff" stroke-width="2" stroke-linejoin="round" stroke-linecap="round"/><line x1="424.99999999999994" y1="143.35898384862247" x2="500" y2="178" stroke="#aef9ff" stroke-width="1.5" opacity="0.5"/><circle cx="526.0472266500395" cy="138.60768987951167" r="8" fill="#aef9ff" stroke="#7f5bff" stroke-width="2" stroke-linejoin="round" stroke-linecap="round"/><line x1="526.0472266500395" y1="138.60768987951167" x2="500" y2="178" stroke="#aef9ff" stroke-width="1.5" opacity="0.5"/><circle cx="614.9066664678467" cy="152.2884956125384" r="8" fill="#aef9ff" stroke="#7f5bff" stroke-width="2" stroke-linejoin="round" stroke-linecap="round"/><line x1="614.9066664678467" y1="152.2884956125384" x2="500" y2="178" stroke="#aef9ff" stroke-width="1.5" opacity="0.5"/></svg>