<svg xmlns="http://www.w3.org/2000/svg" viewBox="0 0 1000 1000" width="1000" height="1000"><rect x="0" y="0" width="1000" height="1000" fill="#0b1a0f" /><text x="60" y="70" font-family="'Courier New',monospace" font-weight="700" font-size="26" fill="#1e7a3a" text-anchor="start" opacity="0.5">0101 LLMA &gt; train --epoch 0</text><text x="60" y="136" font-family="'Courier New',monospace" font-weight="700" font-size="26" fill="#1e7a3a" text-anchor="start" opacity="0.5">0101 LLMA &gt; train --epoch 1</text><text x="60" y="202" font-family="'Courier New',monospace" font-weight="700" font-size="26" fill="#1e7a3a" text-anchor="start" opacity="0.5">0101 LLMA &gt; train --epoch 2</text><text x="60" y="268" font-family="'Courier New',monospace" font-weight="700" font-size="26" fill="#1e7a3a" text-anchor="start" opacity="0.5">0101 LLMA &gt; train --epoch 3</text><text x="60" y="334" font-family="'Courier New',monospace" font-weight="700" font-size="26" fill="#1e7a3a" text-anchor="start" opacity="0.5">0101 LLMA &gt; train --epoch 4</text><text x="60" y="400" font-family="'Courier New',monospace" font-weight="700" font-size="26" fill="#1e7a3a" text-anchor="start" opacity="0.5">0101 LLMA &gt; train --epoch 5</text><text x="60" y="466" font-family="'Courier New',monospace" font-weight="700" font-size="26" fill="#1e7a3a" text-anchor="start" opacity="0.5">0101 LLMA &gt; train --epoch 6</text><text x="60" y="532" font-family="'Courier New',monospace" font-weight="700" font-size="26" fill="#1e7a3a" text-anchor="start" opacity="0.5">0101 LLMA &gt; train --epoch 7</text><text x="60" y="598" font-family="'Courier New',monospace" font-weight="700" font-size="26" fill="#1e7a3a" text-anchor="start" opacity="0.5">0101 LLMA &gt; train --epoch 8</text><text x="60" y="664" font-family="'Courier New',monospace" font-weight="700" font-size="26" fill="#1e7a3a" text-anchor="start" opacity="0.5">0101 LLMA &gt; train --epoch 9</text><text x="60" y="730" font-family="'Courier New',monospace" font-weight="700" font-size="26" fill="#1e7a3a" text-anchor="start" opacity="0.5">0101 LLMA &gt; train --epoch 10</text><text x="60" y="796" font-family="'Courier New',monospace" font-weight="700" font-size="26" fill="#1e7a3a" text-anchor="start" opacity="0.5">0101 LLMA &gt; train --epoch 11</text><text x="60" y="862" font-family="'Courier New',monospace" font-weight="700" font-size="26" fill="#1e7a3a" text-anchor="start" opacity="0.5">0101 LLMA &gt; train --epoch 12</text><text x="60" y="928" font-family="'Courier New',monospace" font-weight="700" font-size="26" fill="#1e7a3a" text-anchor="start" opacity="0.5">0101 LLMA &gt; train --epoch 13</text><g transform="rotate(-16 423 220)"><ellipse cx="423" cy="180" rx="42" ry="92" fill="#f3e9d2" stroke="#15161a" stroke-width="7" stroke-linejoin="round" stroke-linecap="round"/><ellipse cx="423" cy="195" rx="18" ry="55" fill="#e7c3ad" /></g><g transform="rotate(16 577 220)"><ellipse cx="577" cy="180" rx="42" ry="92" fill="#f3e9d2" stroke="#15161a" stroke-width="7" stroke-linejoin="round" stroke-linecap="round"/><ellipse cx="577" cy="195" rx="18" ry="55" fill="#e7c3ad" /></g><path d="M 386,632 C 352,790 350,910 372,1000 L 628,1000 C 650,910 648,790 614,632 Z" fill="#f3e9d2" stroke="#15161a" stroke-width="7" stroke-linejoin="round" stroke-linecap="round"/><path d="M 386,632 C 352,790 350,910 372,1000 L 470,1000 C 452,900 452,800 470,632 Z" fill="#e3d3b0" opacity="0.5"/><ellipse cx="500" cy="430" rx="190" ry="178" fill="#f3e9d2" stroke="#15161a" stroke-width="7" stroke-linejoin="round" stroke-linecap="round"/><path d="M 410,300 q 30,-60 90,-30 q 60,-30 90,30 q -20,40 -90,30 q -70,10 -90,-30 Z" fill="#e3d3b0" opacity="0.55"/><ellipse cx="500" cy="548" rx="126" ry="94" fill="#fbf6ea" stroke="#15161a" stroke-width="7" stroke-linejoin="round" stroke-linecap="round"/><ellipse cx="466" cy="552" rx="11" ry="15" fill="#e3d3b0" /><ellipse cx="534" cy="552" rx="11" ry="15" fill="#e3d3b0" /><path d="M 372,1000 C 360,900 372,820 410,792 L 590,792 C 628,820 640,900 628,1000 Z" fill="#3a3f4b" stroke="#15161a" stroke-width="7" stroke-linejoin="round" stroke-linecap="round"/><path d="M 410,792 q 90,70 180,0 l -10,40 q -80,55 -160,0 Z" fill="#2c313b" stroke="" stroke-width="5" stroke-linejoin="round" stroke-linecap="round"/><text x="500" y="940" font-family="'Courier New',monospace" font-weight="700" font-size="40" fill="#7fd6ff" text-anchor="middle" >GPU</text><path d="M 430,760 Q 500,820 570,760" fill="none" stroke="#e9c45a" stroke-width="8" stroke-linejoin="round" stroke-linecap="round"/><circle cx="500" cy="820" r="34" fill="#e9c45a" stroke="#15161a" stroke-width="7" stroke-linejoin="round" stroke-linecap="round"/><text x="500" y="834" font-family="'Courier New',monospace" font-weight="700" font-size="44" fill="#7a5c00" text-anchor="middle" >◈</text><path d="M 460,612 Q 500,628 540,612" fill="none" stroke="#15161a" stroke-width="6" stroke-linejoin="round" stroke-linecap="round"/><path d="M 538,614 q 10,40 0,70 q -12,-30 0,-70" fill="#9fd6ff" stroke="#5aa9e0" stroke-width="3" stroke-linejoin="round" stroke-linecap="round"/><path d="M 400,408 q 28,26 56,0" fill="none" stroke="#15161a" stroke-width="6" stroke-linejoin="round" stroke-linecap="round"/><path d="M 544,408 q 28,26 56,0" fill="none" stroke="#15161a" stroke-width="6" stroke-linejoin="round" stroke-linecap="round"/><path d="M 360,258 q 140,-110 280,0 Z" fill="#2e6bff" stroke="#15161a" stroke-width="7" stroke-linejoin="round" stroke-linecap="round"/><path d="M 600,258 q 70,6 96,30 l -10,18 q -50,-22 -86,-22 Z" fill="#1f4fbf" stroke="#15161a" stroke-width="7" stroke-linejoin="round" stroke-linecap="round"/><text x="500" y="228" font-family="'Courier New',monospace" font-weight="700" font-size="34" fill="#ffffff" text-anchor="middle" >AGI</text><rect x="0" y="0" width="18" height="12" fill="#ff5b5b" opacity="0.85" rx="3"/><rect x="137" y="211" width="18" height="12" fill="#ffd24e" opacity="0.85" rx="3"/><rect x="274" y="422" width="18" height="12" fill="#5bd6a0" opacity="0.85" rx="3"/><rect x="411" y="633" width="18" height="12" fill="#5b9bff" opacity="0.85" rx="3"/><rect x="548" y="844" width="18" height="12" fill="#b15bff" opacity="0.85" rx="3"/><rect x="685" y="55" width="18" height="12" fill="#ff5b5b" opacity="0.85" rx="3"/><rect x="822" y="266" width="18" height="12" fill="#ffd24e" opacity="0.85" rx="3"/><rect x="959" y="477" width="18" height="12" fill="#5bd6a0" opacity="0.85" rx="3"/><rect x="96" y="688" width="18" height="12" fill="#5b9bff" opacity="0.85" rx="3"/><rect x="233" y="899" width="18" height="12" fill="#b15bff" opacity="0.85" rx="3"/><rect x="370" y="110" width="18" height="12" fill="#ff5b5b" opacity="0.85" rx="3"/><rect x="507" y="321" width="18" height="12" fill="#ffd24e" opacity="0.85" rx="3"/><rect x="644" y="532" width="18" height="12" fill="#5bd6a0" opacity="0.85" rx="3"/><rect x="781" y="743" width="18" height="12" fill="#5b9bff" opacity="0.85" rx="3"/><rect x="918" y="954" width="18" height="12" fill="#b15bff" opacity="0.85" rx="3"/><rect x="55" y="165" width="18" height="12" fill="#ff5b5b" opacity="0.85" rx="3"/><rect x="192" y="376" width="18" height="12" fill="#ffd24e" opacity="0.85" rx="3"/><rect x="329" y="587" width="18" height="12" fill="#5bd6a0" opacity="0.85" rx="3"/><rect x="466" y="798" width="18" height="12" fill="#5b9bff" opacity="0.85" rx="3"/><rect x="603" y="9" width="18" height="12" fill="#b15bff" opacity="0.85" rx="3"/><rect x="740" y="220" width="18" height="12" fill="#ff5b5b" opacity="0.85" rx="3"/><rect x="877" y="431" width="18" height="12" fill="#ffd24e" opacity="0.85" rx="3"/><rect x="14" y="642" width="18" height="12" fill="#5bd6a0" opacity="0.85" rx="3"/><rect x="151" y="853" width="18" height="12" fill="#5b9bff" opacity="0.85" rx="3"/><rect x="288" y="64" width="18" height="12" fill="#b15bff" opacity="0.85" rx="3"/><rect x="425" y="275" width="18" height="12" fill="#ff5b5b" opacity="0.85" rx="3"/><rect x="562" y="486" width="18" height="12" fill="#ffd24e" opacity="0.85" rx="3"/><rect x="699" y="697" width="18" height="12" fill="#5bd6a0" opacity="0.85" rx="3"/><rect x="836" y="908" width="18" height="12" fill="#5b9bff" opacity="0.85" rx="3"/><rect x="973" y="119" width="18" height="12" fill="#b15bff" opacity="0.85" rx="3"/><rect x="110" y="330" width="18" height="12" fill="#ff5b5b" opacity="0.85" rx="3"/><rect x="247" y="541" width="18" height="12" fill="#ffd24e" opacity="0.85" rx="3"/><rect x="384" y="752" width="18" height="12" fill="#5bd6a0" opacity="0.85" rx="3"/><rect x="521" y="963" width="18" height="12" fill="#5b9bff" opacity="0.85" rx="3"/><rect x="658" y="174" width="18" height="12" fill="#b15bff" opacity="0.85" rx="3"/><rect x="795" y="385" width="18" height="12" fill="#ff5b5b" opacity="0.85" rx="3"/><rect x="932" y="596" width="18" height="12" fill="#ffd24e" opacity="0.85" rx="3"/><rect x="69" y="807" width="18" height="12" fill="#5bd6a0" opacity="0.85" rx="3"/><rect x="206" y="18" width="18" height="12" fill="#5b9bff" opacity="0.85" rx="3"/><rect x="343" y="229" width="18" height="12" fill="#b15bff" opacity="0.85" rx="3"/></svg>