<svg xmlns="http://www.w3.org/2000/svg" viewBox="0 0 1000 1000" width="1000" height="1000"><defs><linearGradient id="grad" x1="0" y1="0" x2="0" y2="1"><stop offset="0" stop-color="#2a1a4a"/><stop offset="1" stop-color="#10324a"/></linearGradient></defs><rect x="0" y="0" width="1000" height="1000" fill="url(#grad)" /><ellipse cx="500" cy="560" rx="420" ry="260.4" fill="none" stroke="#5fd0c0" stroke-width="2" stroke-linejoin="round" stroke-linecap="round" opacity="0.5"/><ellipse cx="500" cy="560" rx="365" ry="226.3" fill="none" stroke="#5fd0c0" stroke-width="2" stroke-linejoin="round" stroke-linecap="round" opacity="0.5"/><ellipse cx="500" cy="560" rx="310" ry="192.2" fill="none" stroke="#5fd0c0" stroke-width="2" stroke-linejoin="round" stroke-linecap="round" opacity="0.5"/><ellipse cx="500" cy="560" rx="255" ry="158.1" fill="none" stroke="#5fd0c0" stroke-width="2" stroke-linejoin="round" stroke-linecap="round" opacity="0.5"/><ellipse cx="500" cy="560" rx="200" ry="124" fill="none" stroke="#5fd0c0" stroke-width="2" stroke-linejoin="round" stroke-linecap="round" opacity="0.5"/><ellipse cx="500" cy="560" rx="145" ry="89.9" fill="none" stroke="#5fd0c0" stroke-width="2" stroke-linejoin="round" stroke-linecap="round" opacity="0.5"/><ellipse cx="500" cy="560" rx="90" ry="55.8" fill="none" stroke="#5fd0c0" stroke-width="2" stroke-linejoin="round" stroke-linecap="round" opacity="0.5"/><circle cx="330" cy="360" r="9" fill="#ffd24e" /><line x1="330" y1="360" x2="500" y2="560" stroke="#ffd24e" stroke-width="3" stroke-dasharray="6 6"/><g transform="rotate(-16 423 220)"><ellipse cx="423" cy="180" rx="42" ry="92" fill="#f3b6c9" stroke="#15161a" stroke-width="7" stroke-linejoin="round" stroke-linecap="round"/><ellipse cx="423" cy="195" rx="18" ry="55" fill="#e58aa8" /></g><g transform="rotate(16 577 220)"><ellipse cx="577" cy="180" rx="42" ry="92" fill="#f3b6c9" stroke="#15161a" stroke-width="7" stroke-linejoin="round" stroke-linecap="round"/><ellipse cx="577" cy="195" rx="18" ry="55" fill="#e58aa8" /></g><path d="M 386,632 C 352,790 350,910 372,1000 L 628,1000 C 650,910 648,790 614,632 Z" fill="#f3b6c9" stroke="#15161a" stroke-width="7" stroke-linejoin="round" stroke-linecap="round"/><path d="M 386,632 C 352,790 350,910 372,1000 L 470,1000 C 452,900 452,800 470,632 Z" fill="#e58aa8" opacity="0.5"/><ellipse cx="500" cy="430" rx="190" ry="178" fill="#f3b6c9" stroke="#15161a" stroke-width="7" stroke-linejoin="round" stroke-linecap="round"/><path d="M 410,300 q 30,-60 90,-30 q 60,-30 90,30 q -20,40 -90,30 q -70,10 -90,-30 Z" fill="#e58aa8" opacity="0.55"/><ellipse cx="500" cy="548" rx="126" ry="94" fill="#ffd9e4" stroke="#15161a" stroke-width="7" stroke-linejoin="round" stroke-linecap="round"/><ellipse cx="466" cy="552" rx="11" ry="15" fill="#e58aa8" /><ellipse cx="534" cy="552" rx="11" ry="15" fill="#e58aa8" /><path d="M 458,618 Q 510,634 548,604" fill="none" stroke="#15161a" stroke-width="6" stroke-linejoin="round" stroke-linecap="round"/><path d="M 400,408 q 28,26 56,0" fill="none" stroke="#15161a" stroke-width="6" stroke-linejoin="round" stroke-linecap="round"/><path d="M 544,408 q 28,26 56,0" fill="none" stroke="#15161a" stroke-width="6" stroke-linejoin="round" stroke-linecap="round"/></svg>