<svg xmlns="http://www.w3.org/2000/svg" viewBox="0 0 1000 1000" width="1000" height="1000"><rect x="0" y="0" width="1000" height="1000" fill="#0b1a0f" /><text x="60" y="70" font-family="'Courier New',monospace" font-weight="700" font-size="26" fill="#1e7a3a" text-anchor="start" opacity="0.5">0101 LLMA &gt; train --epoch 0</text><text x="60" y="136" font-family="'Courier New',monospace" font-weight="700" font-size="26" fill="#1e7a3a" text-anchor="start" opacity="0.5">0101 LLMA &gt; train --epoch 1</text><text x="60" y="202" font-family="'Courier New',monospace" font-weight="700" font-size="26" fill="#1e7a3a" text-anchor="start" opacity="0.5">0101 LLMA &gt; train --epoch 2</text><text x="60" y="268" font-family="'Courier New',monospace" font-weight="700" font-size="26" fill="#1e7a3a" text-anchor="start" opacity="0.5">0101 LLMA &gt; train --epoch 3</text><text x="60" y="334" font-family="'Courier New',monospace" font-weight="700" font-size="26" fill="#1e7a3a" text-anchor="start" opacity="0.5">0101 LLMA &gt; train --epoch 4</text><text x="60" y="400" font-family="'Courier New',monospace" font-weight="700" font-size="26" fill="#1e7a3a" text-anchor="start" opacity="0.5">0101 LLMA &gt; train --epoch 5</text><text x="60" y="466" font-family="'Courier New',monospace" font-weight="700" font-size="26" fill="#1e7a3a" text-anchor="start" opacity="0.5">0101 LLMA &gt; train --epoch 6</text><text x="60" y="532" font-family="'Courier New',monospace" font-weight="700" font-size="26" fill="#1e7a3a" text-anchor="start" opacity="0.5">0101 LLMA &gt; train --epoch 7</text><text x="60" y="598" font-family="'Courier New',monospace" font-weight="700" font-size="26" fill="#1e7a3a" text-anchor="start" opacity="0.5">0101 LLMA &gt; train --epoch 8</text><text x="60" y="664" font-family="'Courier New',monospace" font-weight="700" font-size="26" fill="#1e7a3a" text-anchor="start" opacity="0.5">0101 LLMA &gt; train --epoch 9</text><text x="60" y="730" font-family="'Courier New',monospace" font-weight="700" font-size="26" fill="#1e7a3a" text-anchor="start" opacity="0.5">0101 LLMA &gt; train --epoch 10</text><text x="60" y="796" font-family="'Courier New',monospace" font-weight="700" font-size="26" fill="#1e7a3a" text-anchor="start" opacity="0.5">0101 LLMA &gt; train --epoch 11</text><text x="60" y="862" font-family="'Courier New',monospace" font-weight="700" font-size="26" fill="#1e7a3a" text-anchor="start" opacity="0.5">0101 LLMA &gt; train --epoch 12</text><text x="60" y="928" font-family="'Courier New',monospace" font-weight="700" font-size="26" fill="#1e7a3a" text-anchor="start" opacity="0.5">0101 LLMA &gt; train --epoch 13</text><g transform="rotate(-16 423 220)"><ellipse cx="423" cy="180" rx="42" ry="92" fill="#f3e9d2" stroke="#15161a" stroke-width="7" stroke-linejoin="round" stroke-linecap="round"/><ellipse cx="423" cy="195" rx="18" ry="55" fill="#e7c3ad" /></g><g transform="rotate(16 577 220)"><ellipse cx="577" cy="180" rx="42" ry="92" fill="#f3e9d2" stroke="#15161a" stroke-width="7" stroke-linejoin="round" stroke-linecap="round"/><ellipse cx="577" cy="195" rx="18" ry="55" fill="#e7c3ad" /></g><path d="M 386,632 C 352,790 350,910 372,1000 L 628,1000 C 650,910 648,790 614,632 Z" fill="#f3e9d2" stroke="#15161a" stroke-width="7" stroke-linejoin="round" stroke-linecap="round"/><path d="M 386,632 C 352,790 350,910 372,1000 L 470,1000 C 452,900 452,800 470,632 Z" fill="#e3d3b0" opacity="0.5"/><ellipse cx="500" cy="430" rx="190" ry="178" fill="#f3e9d2" stroke="#15161a" stroke-width="7" stroke-linejoin="round" stroke-linecap="round"/><path d="M 410,300 q 30,-60 90,-30 q 60,-30 90,30 q -20,40 -90,30 q -70,10 -90,-30 Z" fill="#e3d3b0" opacity="0.55"/><ellipse cx="500" cy="548" rx="126" ry="94" fill="#fbf6ea" stroke="#15161a" stroke-width="7" stroke-linejoin="round" stroke-linecap="round"/><ellipse cx="466" cy="552" rx="11" ry="15" fill="#e3d3b0" /><ellipse cx="534" cy="552" rx="11" ry="15" fill="#e3d3b0" /><path d="M 372,1000 C 360,900 372,820 410,792 L 590,792 C 628,820 640,900 628,1000 Z" fill="#101216" stroke="#15161a" stroke-width="7" stroke-linejoin="round" stroke-linecap="round"/><text x="500" y="880" font-family="'Courier New',monospace" font-weight="700" font-size="26" fill="#ffffff" text-anchor="middle" >ATTENTION</text><text x="500" y="920" font-family="'Courier New',monospace" font-weight="700" font-size="22" fill="#ffffff" text-anchor="middle" >IS ALL YOU</text><text x="500" y="958" font-family="'Courier New',monospace" font-weight="700" font-size="22" fill="#7fd6ff" text-anchor="middle" >NEED</text><path d="M 460,612 Q 500,626 540,612" fill="none" stroke="#15161a" stroke-width="6" stroke-linejoin="round" stroke-linecap="round"/><path d="M 400,408 q 28,26 56,0" fill="none" stroke="#15161a" stroke-width="6" stroke-linejoin="round" stroke-linecap="round"/><path d="M 544,408 q 28,26 56,0" fill="none" stroke="#15161a" stroke-width="6" stroke-linejoin="round" stroke-linecap="round"/><circle cx="500" cy="218" r="56" fill="#2c313b" stroke="#15161a" stroke-width="7" stroke-linejoin="round" stroke-linecap="round"/><path d="M 500,218 L 550,218 A 50 50 0 0 1 531.0804984135332,257.16634548137415 Z" fill="#9aa7b8"/><path d="M 500,218 L 527.015115293407,260.0735492403948 A 50 50 0 0 1 483.8355216568248,265.3150043843707 Z" fill="#9aa7b8"/><path d="M 500,218 L 479.1926581726429,263.4648713412841 A 50 50 0 0 1 451.45209174252045,229.96246646069912 Z" fill="#9aa7b8"/><path d="M 500,218 L 450.5003751699777,225.05600040299336 A 50 50 0 0 1 463.703384789993,183.6116920408013 Z" fill="#9aa7b8"/><path d="M 500,218 L 467.3178189568194,180.1598752346036 A 50 50 0 0 1 509.3256184711288,168.87736936878338 Z" fill="#9aa7b8"/><path d="M 500,218 L 514.1831092731613,170.05378626684308 A 50 50 0 0 1 546.3739215372018,199.3061667584882 Z" fill="#9aa7b8"/><circle cx="500" cy="218" r="12" fill="#15161a" /></svg>