<svg xmlns="http://www.w3.org/2000/svg" viewBox="0 0 1000 1000" width="1000" height="1000"><rect x="0" y="0" width="1000" height="1000" fill="#1247c4" /><text x="500" y="300" font-family="'Courier New',monospace" font-weight="700" font-size="120" fill="#ffffff" text-anchor="middle" >:(</text><text x="500" y="420" font-family="'Courier New',monospace" font-weight="700" font-size="30" fill="#dbe6ff" text-anchor="middle" >MODEL_NOT_RESPONDING</text><text x="500" y="470" font-family="'Courier New',monospace" font-weight="700" font-size="22" fill="#aac2ff" text-anchor="middle" >0x4800 — your LLMa ran out of VRAM</text><g transform="rotate(-16 423 220)"><ellipse cx="423" cy="180" rx="42" ry="92" fill="#b07d4e" stroke="#15161a" stroke-width="7" stroke-linejoin="round" stroke-linecap="round"/><ellipse cx="423" cy="195" rx="18" ry="55" fill="#8a5a34" /></g><g transform="rotate(16 577 220)"><ellipse cx="577" cy="180" rx="42" ry="92" fill="#b07d4e" stroke="#15161a" stroke-width="7" stroke-linejoin="round" stroke-linecap="round"/><ellipse cx="577" cy="195" rx="18" ry="55" fill="#8a5a34" /></g><path d="M 386,632 C 352,790 350,910 372,1000 L 628,1000 C 650,910 648,790 614,632 Z" fill="#b07d4e" stroke="#15161a" stroke-width="7" stroke-linejoin="round" stroke-linecap="round"/><path d="M 386,632 C 352,790 350,910 372,1000 L 470,1000 C 452,900 452,800 470,632 Z" fill="#92653b" opacity="0.5"/><ellipse cx="500" cy="430" rx="190" ry="178" fill="#b07d4e" stroke="#15161a" stroke-width="7" stroke-linejoin="round" stroke-linecap="round"/><path d="M 410,300 q 30,-60 90,-30 q 60,-30 90,30 q -20,40 -90,30 q -70,10 -90,-30 Z" fill="#92653b" opacity="0.55"/><ellipse cx="500" cy="548" rx="126" ry="94" fill="#d8b388" stroke="#15161a" stroke-width="7" stroke-linejoin="round" stroke-linecap="round"/><ellipse cx="466" cy="552" rx="11" ry="15" fill="#92653b" /><ellipse cx="534" cy="552" rx="11" ry="15" fill="#92653b" /><path d="M 372,1000 C 360,900 372,820 410,792 L 590,792 C 628,820 640,900 628,1000 Z" fill="#f4f6fb" stroke="#15161a" stroke-width="7" stroke-linejoin="round" stroke-linecap="round"/><line x1="500" y1="800" x2="500" y2="1000" stroke="#c7ccd6" stroke-width="5" /><circle cx="470" cy="880" r="7" fill="#c7ccd6" /><circle cx="470" cy="940" r="7" fill="#c7ccd6" /><rect x="540" y="840" width="46" height="56" fill="#dfe3ec" stroke="#c7ccd6" stroke-width="3" stroke-linejoin="round" stroke-linecap="round"/><path d="M 430,760 Q 500,820 570,760" fill="none" stroke="#e9c45a" stroke-width="8" stroke-linejoin="round" stroke-linecap="round"/><circle cx="500" cy="820" r="34" fill="#e9c45a" stroke="#15161a" stroke-width="7" stroke-linejoin="round" stroke-linecap="round"/><text x="500" y="834" font-family="'Courier New',monospace" font-weight="700" font-size="44" fill="#7a5c00" text-anchor="middle" >◈</text><path d="M 458,618 Q 510,634 548,604" fill="none" stroke="#15161a" stroke-width="6" stroke-linejoin="round" stroke-linecap="round"/><circle cx="428" cy="408" r="38" fill="#ffffff" stroke="#15161a" stroke-width="5" stroke-linejoin="round" stroke-linecap="round"/><circle cx="428" cy="408" r="9" fill="#1b1d22" /><circle cx="572" cy="408" r="38" fill="#ffffff" stroke="#15161a" stroke-width="5" stroke-linejoin="round" stroke-linecap="round"/><circle cx="572" cy="408" r="9" fill="#1b1d22" /><rect x="494" y="162" width="14" height="80" fill="#3ad07a" /><text x="500" y="254" font-family="'Courier New',monospace" font-weight="700" font-size="20" fill="#3ad07a" text-anchor="middle" >&gt;_</text><line x1="0" y1="0" x2="500" y2="430" stroke="#7f9bff" stroke-width="1.5" opacity="0.35"/><line x1="91" y1="0" x2="500" y2="430" stroke="#7f9bff" stroke-width="1.5" opacity="0.35"/><line x1="182" y1="0" x2="500" y2="430" stroke="#7f9bff" stroke-width="1.5" opacity="0.35"/><line x1="273" y1="0" x2="500" y2="430" stroke="#7f9bff" stroke-width="1.5" opacity="0.35"/><line x1="364" y1="0" x2="500" y2="430" stroke="#7f9bff" stroke-width="1.5" opacity="0.35"/><line x1="455" y1="0" x2="500" y2="430" stroke="#7f9bff" stroke-width="1.5" opacity="0.35"/><line x1="546" y1="0" x2="500" y2="430" stroke="#7f9bff" stroke-width="1.5" opacity="0.35"/><line x1="637" y1="0" x2="500" y2="430" stroke="#7f9bff" stroke-width="1.5" opacity="0.35"/><line x1="728" y1="0" x2="500" y2="430" stroke="#7f9bff" stroke-width="1.5" opacity="0.35"/><line x1="819" y1="0" x2="500" y2="430" stroke="#7f9bff" stroke-width="1.5" opacity="0.35"/><line x1="910" y1="0" x2="500" y2="430" stroke="#7f9bff" stroke-width="1.5" opacity="0.35"/><line x1="1" y1="0" x2="500" y2="430" stroke="#7f9bff" stroke-width="1.5" opacity="0.35"/></svg>