<svg xmlns="http://www.w3.org/2000/svg" viewBox="0 0 1000 1000" width="1000" height="1000"><defs><radialGradient id="rgb" cx="0.5" cy="0.5" r="0.7"><stop offset="0" stop-color="#ff2eea"/><stop offset="0.5" stop-color="#7a2eff"/><stop offset="1" stop-color="#0a0014"/></radialGradient></defs><rect x="0" y="0" width="1000" height="1000" fill="url(#rgb)" /><g transform="rotate(-16 423 220)"><ellipse cx="423" cy="180" rx="42" ry="92" fill="#b07d4e" stroke="#15161a" stroke-width="7" stroke-linejoin="round" stroke-linecap="round"/><ellipse cx="423" cy="195" rx="18" ry="55" fill="#8a5a34" /></g><g transform="rotate(16 577 220)"><ellipse cx="577" cy="180" rx="42" ry="92" fill="#b07d4e" stroke="#15161a" stroke-width="7" stroke-linejoin="round" stroke-linecap="round"/><ellipse cx="577" cy="195" rx="18" ry="55" fill="#8a5a34" /></g><path d="M 386,632 C 352,790 350,910 372,1000 L 628,1000 C 650,910 648,790 614,632 Z" fill="#b07d4e" stroke="#15161a" stroke-width="7" stroke-linejoin="round" stroke-linecap="round"/><path d="M 386,632 C 352,790 350,910 372,1000 L 470,1000 C 452,900 452,800 470,632 Z" fill="#92653b" opacity="0.5"/><ellipse cx="500" cy="430" rx="190" ry="178" fill="#b07d4e" stroke="#15161a" stroke-width="7" stroke-linejoin="round" stroke-linecap="round"/><path d="M 410,300 q 30,-60 90,-30 q 60,-30 90,30 q -20,40 -90,30 q -70,10 -90,-30 Z" fill="#92653b" opacity="0.55"/><ellipse cx="500" cy="548" rx="126" ry="94" fill="#d8b388" stroke="#15161a" stroke-width="7" stroke-linejoin="round" stroke-linecap="round"/><ellipse cx="466" cy="552" rx="11" ry="15" fill="#92653b" /><ellipse cx="534" cy="552" rx="11" ry="15" fill="#92653b" /><path d="M 372,1000 C 360,900 372,820 410,792 L 590,792 C 628,820 640,900 628,1000 Z" fill="#3a3f4b" stroke="#15161a" stroke-width="7" stroke-linejoin="round" stroke-linecap="round"/><path d="M 410,792 q 90,70 180,0 l -10,40 q -80,55 -160,0 Z" fill="#2c313b" stroke="" stroke-width="5" stroke-linejoin="round" stroke-linecap="round"/><text x="500" y="940" font-family="'Courier New',monospace" font-weight="700" font-size="40" fill="#7fd6ff" text-anchor="middle" >GPU</text><path d="M 462,612 Q 500,624 538,612" fill="none" stroke="#15161a" stroke-width="6" stroke-linejoin="round" stroke-linecap="round"/><polygon points="520,612 560,566 540,610" fill="#5fbf4a" stroke="#2f7a25" stroke-width="3" stroke-linejoin="round" stroke-linecap="round"/><polygon points="540,612 588,582 556,612" fill="#6fd05a" stroke="#2f7a25" stroke-width="3" stroke-linejoin="round" stroke-linecap="round"/><rect x="378" y="382" width="220" height="52" fill="#101216" stroke="#15161a" stroke-width="7" stroke-linejoin="round" stroke-linecap="round"/><rect x="384" y="390" width="18" height="18" fill="#ff3b6b" /><rect x="414" y="390" width="18" height="18" fill="#ff3b6b" /><rect x="444" y="390" width="18" height="18" fill="#ff3b6b" /><rect x="474" y="390" width="18" height="18" fill="#ff3b6b" /><rect x="504" y="390" width="18" height="18" fill="#ff3b6b" /><circle cx="500" cy="238" r="12" fill="#15161a" /><g transform="rotate(0 500 238)"><ellipse cx="500" cy="188" rx="16" ry="50" fill="#ff5b5b" stroke="" stroke-width="3" stroke-linejoin="round" stroke-linecap="round"/></g><g transform="rotate(90 500 238)"><ellipse cx="500" cy="188" rx="16" ry="50" fill="#ffd24e" stroke="" stroke-width="3" stroke-linejoin="round" stroke-linecap="round"/></g><g transform="rotate(180 500 238)"><ellipse cx="500" cy="188" rx="16" ry="50" fill="#5bd6a0" stroke="" stroke-width="3" stroke-linejoin="round" stroke-linecap="round"/></g><g transform="rotate(270 500 238)"><ellipse cx="500" cy="188" rx="16" ry="50" fill="#5b9bff" stroke="" stroke-width="3" stroke-linejoin="round" stroke-linecap="round"/></g></svg>