<svg xmlns="http://www.w3.org/2000/svg" viewBox="0 0 1000 1000" width="1000" height="1000"><defs><radialGradient id="eyeglow" cx="0.5" cy="0.5" r="0.5"><stop offset="0" stop-color="#aef9ff"/><stop offset="1" stop-color="#13b6c8"/></radialGradient></defs><rect x="0" y="0" width="1000" height="1000" fill="#0b1a0f" /><text x="60" y="70" font-family="'Courier New',monospace" font-weight="700" font-size="26" fill="#1e7a3a" text-anchor="start" opacity="0.5">0101 LLMA &gt; train --epoch 0</text><text x="60" y="136" font-family="'Courier New',monospace" font-weight="700" font-size="26" fill="#1e7a3a" text-anchor="start" opacity="0.5">0101 LLMA &gt; train --epoch 1</text><text x="60" y="202" font-family="'Courier New',monospace" font-weight="700" font-size="26" fill="#1e7a3a" text-anchor="start" opacity="0.5">0101 LLMA &gt; train --epoch 2</text><text x="60" y="268" font-family="'Courier New',monospace" font-weight="700" font-size="26" fill="#1e7a3a" text-anchor="start" opacity="0.5">0101 LLMA &gt; train --epoch 3</text><text x="60" y="334" font-family="'Courier New',monospace" font-weight="700" font-size="26" fill="#1e7a3a" text-anchor="start" opacity="0.5">0101 LLMA &gt; train --epoch 4</text><text x="60" y="400" font-family="'Courier New',monospace" font-weight="700" font-size="26" fill="#1e7a3a" text-anchor="start" opacity="0.5">0101 LLMA &gt; train --epoch 5</text><text x="60" y="466" font-family="'Courier New',monospace" font-weight="700" font-size="26" fill="#1e7a3a" text-anchor="start" opacity="0.5">0101 LLMA &gt; train --epoch 6</text><text x="60" y="532" font-family="'Courier New',monospace" font-weight="700" font-size="26" fill="#1e7a3a" text-anchor="start" opacity="0.5">0101 LLMA &gt; train --epoch 7</text><text x="60" y="598" font-family="'Courier New',monospace" font-weight="700" font-size="26" fill="#1e7a3a" text-anchor="start" opacity="0.5">0101 LLMA &gt; train --epoch 8</text><text x="60" y="664" font-family="'Courier New',monospace" font-weight="700" font-size="26" fill="#1e7a3a" text-anchor="start" opacity="0.5">0101 LLMA &gt; train --epoch 9</text><text x="60" y="730" font-family="'Courier New',monospace" font-weight="700" font-size="26" fill="#1e7a3a" text-anchor="start" opacity="0.5">0101 LLMA &gt; train --epoch 10</text><text x="60" y="796" font-family="'Courier New',monospace" font-weight="700" font-size="26" fill="#1e7a3a" text-anchor="start" opacity="0.5">0101 LLMA &gt; train --epoch 11</text><text x="60" y="862" font-family="'Courier New',monospace" font-weight="700" font-size="26" fill="#1e7a3a" text-anchor="start" opacity="0.5">0101 LLMA &gt; train --epoch 12</text><text x="60" y="928" font-family="'Courier New',monospace" font-weight="700" font-size="26" fill="#1e7a3a" text-anchor="start" opacity="0.5">0101 LLMA &gt; train --epoch 13</text><g transform="rotate(-16 423 220)"><ellipse cx="423" cy="180" rx="42" ry="92" fill="#b07d4e" stroke="#15161a" stroke-width="7" stroke-linejoin="round" stroke-linecap="round"/><ellipse cx="423" cy="195" rx="18" ry="55" fill="#8a5a34" /></g><g transform="rotate(16 577 220)"><ellipse cx="577" cy="180" rx="42" ry="92" fill="#b07d4e" stroke="#15161a" stroke-width="7" stroke-linejoin="round" stroke-linecap="round"/><ellipse cx="577" cy="195" rx="18" ry="55" fill="#8a5a34" /></g><path d="M 386,632 C 352,790 350,910 372,1000 L 628,1000 C 650,910 648,790 614,632 Z" fill="#b07d4e" stroke="#15161a" stroke-width="7" stroke-linejoin="round" stroke-linecap="round"/><path d="M 386,632 C 352,790 350,910 372,1000 L 470,1000 C 452,900 452,800 470,632 Z" fill="#92653b" opacity="0.5"/><ellipse cx="500" cy="430" rx="190" ry="178" fill="#b07d4e" stroke="#15161a" stroke-width="7" stroke-linejoin="round" stroke-linecap="round"/><path d="M 410,300 q 30,-60 90,-30 q 60,-30 90,30 q -20,40 -90,30 q -70,10 -90,-30 Z" fill="#92653b" opacity="0.55"/><ellipse cx="500" cy="548" rx="126" ry="94" fill="#d8b388" stroke="#15161a" stroke-width="7" stroke-linejoin="round" stroke-linecap="round"/><ellipse cx="466" cy="552" rx="11" ry="15" fill="#92653b" /><ellipse cx="534" cy="552" rx="11" ry="15" fill="#92653b" /><path d="M 372,1000 C 360,900 372,820 410,792 L 590,792 C 628,820 640,900 628,1000 Z" fill="#eaff1f" stroke="#15161a" stroke-width="7" stroke-linejoin="round" stroke-linecap="round"/><rect x="400" y="860" width="200" height="30" fill="#cfe000" opacity="0.8"/><rect x="400" y="920" width="200" height="26" fill="#9aa7ff" stroke="#ffffff" stroke-width="4" stroke-linejoin="round" stroke-linecap="round"/><path d="M 460,612 Q 500,626 540,612" fill="none" stroke="#15161a" stroke-width="6" stroke-linejoin="round" stroke-linecap="round"/><circle cx="428" cy="408" r="30" fill="url(#eyeglow)" stroke="#0a6a78" stroke-width="4" stroke-linejoin="round" stroke-linecap="round"/><circle cx="428" cy="408" r="10" fill="#ffffff" /><circle cx="572" cy="408" r="30" fill="url(#eyeglow)" stroke="#0a6a78" stroke-width="4" stroke-linejoin="round" stroke-linecap="round"/><circle cx="572" cy="408" r="10" fill="#ffffff" /><rect x="0" y="0" width="18" height="12" fill="#ff5b5b" opacity="0.85" rx="3"/><rect x="137" y="211" width="18" height="12" fill="#ffd24e" opacity="0.85" rx="3"/><rect x="274" y="422" width="18" height="12" fill="#5bd6a0" opacity="0.85" rx="3"/><rect x="411" y="633" width="18" height="12" fill="#5b9bff" opacity="0.85" rx="3"/><rect x="548" y="844" width="18" height="12" fill="#b15bff" opacity="0.85" rx="3"/><rect x="685" y="55" width="18" height="12" fill="#ff5b5b" opacity="0.85" rx="3"/><rect x="822" y="266" width="18" height="12" fill="#ffd24e" opacity="0.85" rx="3"/><rect x="959" y="477" width="18" height="12" fill="#5bd6a0" opacity="0.85" rx="3"/><rect x="96" y="688" width="18" height="12" fill="#5b9bff" opacity="0.85" rx="3"/><rect x="233" y="899" width="18" height="12" fill="#b15bff" opacity="0.85" rx="3"/><rect x="370" y="110" width="18" height="12" fill="#ff5b5b" opacity="0.85" rx="3"/><rect x="507" y="321" width="18" height="12" fill="#ffd24e" opacity="0.85" rx="3"/><rect x="644" y="532" width="18" height="12" fill="#5bd6a0" opacity="0.85" rx="3"/><rect x="781" y="743" width="18" height="12" fill="#5b9bff" opacity="0.85" rx="3"/><rect x="918" y="954" width="18" height="12" fill="#b15bff" opacity="0.85" rx="3"/><rect x="55" y="165" width="18" height="12" fill="#ff5b5b" opacity="0.85" rx="3"/><rect x="192" y="376" width="18" height="12" fill="#ffd24e" opacity="0.85" rx="3"/><rect x="329" y="587" width="18" height="12" fill="#5bd6a0" opacity="0.85" rx="3"/><rect x="466" y="798" width="18" height="12" fill="#5b9bff" opacity="0.85" rx="3"/><rect x="603" y="9" width="18" height="12" fill="#b15bff" opacity="0.85" rx="3"/><rect x="740" y="220" width="18" height="12" fill="#ff5b5b" opacity="0.85" rx="3"/><rect x="877" y="431" width="18" height="12" fill="#ffd24e" opacity="0.85" rx="3"/><rect x="14" y="642" width="18" height="12" fill="#5bd6a0" opacity="0.85" rx="3"/><rect x="151" y="853" width="18" height="12" fill="#5b9bff" opacity="0.85" rx="3"/><rect x="288" y="64" width="18" height="12" fill="#b15bff" opacity="0.85" rx="3"/><rect x="425" y="275" width="18" height="12" fill="#ff5b5b" opacity="0.85" rx="3"/><rect x="562" y="486" width="18" height="12" fill="#ffd24e" opacity="0.85" rx="3"/><rect x="699" y="697" width="18" height="12" fill="#5bd6a0" opacity="0.85" rx="3"/><rect x="836" y="908" width="18" height="12" fill="#5b9bff" opacity="0.85" rx="3"/><rect x="973" y="119" width="18" height="12" fill="#b15bff" opacity="0.85" rx="3"/><rect x="110" y="330" width="18" height="12" fill="#ff5b5b" opacity="0.85" rx="3"/><rect x="247" y="541" width="18" height="12" fill="#ffd24e" opacity="0.85" rx="3"/><rect x="384" y="752" width="18" height="12" fill="#5bd6a0" opacity="0.85" rx="3"/><rect x="521" y="963" width="18" height="12" fill="#5b9bff" opacity="0.85" rx="3"/><rect x="658" y="174" width="18" height="12" fill="#b15bff" opacity="0.85" rx="3"/><rect x="795" y="385" width="18" height="12" fill="#ff5b5b" opacity="0.85" rx="3"/><rect x="932" y="596" width="18" height="12" fill="#ffd24e" opacity="0.85" rx="3"/><rect x="69" y="807" width="18" height="12" fill="#5bd6a0" opacity="0.85" rx="3"/><rect x="206" y="18" width="18" height="12" fill="#5b9bff" opacity="0.85" rx="3"/><rect x="343" y="229" width="18" height="12" fill="#b15bff" opacity="0.85" rx="3"/></svg>