<svg xmlns="http://www.w3.org/2000/svg" viewBox="0 0 1000 1000" width="1000" height="1000"><defs><linearGradient id="grad" x1="0" y1="0" x2="0" y2="1"><stop offset="0" stop-color="#2a1a4a"/><stop offset="1" stop-color="#10324a"/></linearGradient></defs><rect x="0" y="0" width="1000" height="1000" fill="url(#grad)" /><ellipse cx="500" cy="560" rx="420" ry="260.4" fill="none" stroke="#5fd0c0" stroke-width="2" stroke-linejoin="round" stroke-linecap="round" opacity="0.5"/><ellipse cx="500" cy="560" rx="365" ry="226.3" fill="none" stroke="#5fd0c0" stroke-width="2" stroke-linejoin="round" stroke-linecap="round" opacity="0.5"/><ellipse cx="500" cy="560" rx="310" ry="192.2" fill="none" stroke="#5fd0c0" stroke-width="2" stroke-linejoin="round" stroke-linecap="round" opacity="0.5"/><ellipse cx="500" cy="560" rx="255" ry="158.1" fill="none" stroke="#5fd0c0" stroke-width="2" stroke-linejoin="round" stroke-linecap="round" opacity="0.5"/><ellipse cx="500" cy="560" rx="200" ry="124" fill="none" stroke="#5fd0c0" stroke-width="2" stroke-linejoin="round" stroke-linecap="round" opacity="0.5"/><ellipse cx="500" cy="560" rx="145" ry="89.9" fill="none" stroke="#5fd0c0" stroke-width="2" stroke-linejoin="round" stroke-linecap="round" opacity="0.5"/><ellipse cx="500" cy="560" rx="90" ry="55.8" fill="none" stroke="#5fd0c0" stroke-width="2" stroke-linejoin="round" stroke-linecap="round" opacity="0.5"/><circle cx="330" cy="360" r="9" fill="#ffd24e" /><line x1="330" y1="360" x2="500" y2="560" stroke="#ffd24e" stroke-width="3" stroke-dasharray="6 6"/><g transform="rotate(-16 423 220)"><ellipse cx="423" cy="180" rx="42" ry="92" fill="#b07d4e" stroke="#15161a" stroke-width="7" stroke-linejoin="round" stroke-linecap="round"/><ellipse cx="423" cy="195" rx="18" ry="55" fill="#8a5a34" /></g><g transform="rotate(16 577 220)"><ellipse cx="577" cy="180" rx="42" ry="92" fill="#b07d4e" stroke="#15161a" stroke-width="7" stroke-linejoin="round" stroke-linecap="round"/><ellipse cx="577" cy="195" rx="18" ry="55" fill="#8a5a34" /></g><path d="M 386,632 C 352,790 350,910 372,1000 L 628,1000 C 650,910 648,790 614,632 Z" fill="#b07d4e" stroke="#15161a" stroke-width="7" stroke-linejoin="round" stroke-linecap="round"/><path d="M 386,632 C 352,790 350,910 372,1000 L 470,1000 C 452,900 452,800 470,632 Z" fill="#92653b" opacity="0.5"/><ellipse cx="500" cy="430" rx="190" ry="178" fill="#b07d4e" stroke="#15161a" stroke-width="7" stroke-linejoin="round" stroke-linecap="round"/><path d="M 410,300 q 30,-60 90,-30 q 60,-30 90,30 q -20,40 -90,30 q -70,10 -90,-30 Z" fill="#92653b" opacity="0.55"/><ellipse cx="500" cy="548" rx="126" ry="94" fill="#d8b388" stroke="#15161a" stroke-width="7" stroke-linejoin="round" stroke-linecap="round"/><ellipse cx="466" cy="552" rx="11" ry="15" fill="#92653b" /><ellipse cx="534" cy="552" rx="11" ry="15" fill="#92653b" /><path d="M 372,1000 C 360,900 372,820 410,792 L 590,792 C 628,820 640,900 628,1000 Z" fill="#f4f6fb" stroke="#15161a" stroke-width="7" stroke-linejoin="round" stroke-linecap="round"/><line x1="500" y1="800" x2="500" y2="1000" stroke="#c7ccd6" stroke-width="5" /><circle cx="470" cy="880" r="7" fill="#c7ccd6" /><circle cx="470" cy="940" r="7" fill="#c7ccd6" /><rect x="540" y="840" width="46" height="56" fill="#dfe3ec" stroke="#c7ccd6" stroke-width="3" stroke-linejoin="round" stroke-linecap="round"/><path d="M 460,612 Q 500,626 540,612" fill="none" stroke="#15161a" stroke-width="6" stroke-linejoin="round" stroke-linecap="round"/><circle cx="428" cy="408" r="30" fill="#ffffff" stroke="#15161a" stroke-width="5" stroke-linejoin="round" stroke-linecap="round"/><circle cx="432" cy="410" r="12" fill="#1b1d22" /><circle cx="572" cy="408" r="30" fill="#ffffff" stroke="#15161a" stroke-width="5" stroke-linejoin="round" stroke-linecap="round"/><circle cx="576" cy="410" r="12" fill="#1b1d22" /></svg>